<svg width="81" height="75" viewBox="0 0 81 75" fill="none" xmlns="http://www.w3.org/2000/svg">
<path d="M58.206 1H1V74H58.206V1Z" stroke="#E84234" stroke-miterlimit="10" stroke-linecap="round" stroke-linejoin="round"/>
<path d="M29.6045 57.7772C40.8881 57.7772 50.0352 48.6986 50.0352 37.4995C50.0352 26.3004 40.8881 17.2217 29.6045 17.2217C18.321 17.2217 9.17383 26.3004 9.17383 37.4995C9.17383 48.6986 18.321 57.7772 29.6045 57.7772Z" stroke="#E84234" stroke-miterlimit="10" stroke-linecap="round" stroke-linejoin="round"/>
<path d="M58.207 9.92188C70.7379 12.8959 79.9998 24.2515 79.9998 37.4997C79.9998 50.7478 70.7379 62.1034 58.207 65.0774" stroke="#E84234" stroke-miterlimit="10" stroke-linecap="round" stroke-linejoin="round"/>
<path d="M58.207 25.874C62.2932 28.037 65.0173 32.6333 65.0173 37.5C65.0173 42.637 62.2932 46.9629 58.207 49.1259" stroke="#E84234" stroke-miterlimit="10" stroke-linecap="round" stroke-linejoin="round"/>
<path d="M25.5146 44.2597H22.7905C21.156 44.2597 20.0664 43.1782 20.0664 41.556V33.4449C20.0664 31.8227 21.156 30.7412 22.7905 30.7412H25.5146C27.149 30.7412 28.2387 31.8227 28.2387 33.4449V41.556C28.2387 43.1782 27.149 44.2597 25.5146 44.2597Z" stroke="#E84234" stroke-miterlimit="10" stroke-linecap="round" stroke-linejoin="round"/>
<path d="M39.1357 30.7412H36.4116C34.7771 30.7412 33.6875 31.8227 33.6875 33.4449V34.7968C33.6875 36.419 34.7771 37.5005 36.4116 37.5005C38.046 37.5005 39.1357 38.582 39.1357 40.2042V41.556C39.1357 43.1782 38.046 44.2597 36.4116 44.2597H33.6875" stroke="#E84234" stroke-miterlimit="10" stroke-linecap="round" stroke-linejoin="round"/>
</svg>
