<?xml version="1.0" standalone="no"?>
<!DOCTYPE svg PUBLIC "-//W3C//DTD SVG 20010904//EN"
 "http://www.w3.org/TR/2001/REC-SVG-20010904/DTD/svg10.dtd">
<svg version="1.0" xmlns="http://www.w3.org/2000/svg"
 width="700.000000pt" height="700.000000pt" viewBox="0 0 700.000000 700.000000"
 preserveAspectRatio="xMidYMid meet">
<metadata>
Created by potrace 1.14, written by Peter Selinger 2001-2017
</metadata>
<g transform="translate(0.000000,700.000000) scale(0.100000,-0.100000)"
fill="#000000" stroke="none">
<path d="M1175 6989 c-643 -88 -1086 -536 -1165 -1179 -46 -377 65 -807 299
-1160 279 -423 691 -718 1276 -915 334 -112 834 -203 1223 -222 72 -3 132 -9
132 -13 0 -4 -60 -10 -132 -13 -490 -24 -1038 -139 -1439 -303 -533 -216 -932
-559 -1158 -994 -148 -286 -206 -521 -205 -830 1 -200 16 -304 70 -466 306
-924 1473 -1184 2361 -525 269 199 480 452 641 769 227 445 380 1070 409 1675
6 133 23 176 23 59 0 -101 27 -374 56 -562 68 -442 172 -793 334 -1125 223
-458 527 -775 940 -983 173 -87 295 -130 480 -169 108 -23 150 -26 310 -27
212 -1 313 14 479 70 525 175 859 635 888 1219 31 645 -343 1305 -954 1684
-424 262 -1030 443 -1678 501 -71 6 -168 15 -215 19 l-85 8 66 2 c86 1 354 27
494 46 872 123 1527 428 1916 893 114 136 197 265 273 422 77 161 117 278 153
449 23 109 26 150 27 311 1 212 -14 313 -70 479 -299 896 -1398 1170 -2291
571 -444 -297 -741 -735 -933 -1372 -97 -323 -170 -754 -187 -1110 -3 -76 -9
-138 -13 -138 -4 0 -10 57 -13 128 -19 391 -106 877 -218 1213 -210 631 -529
1061 -994 1338 -191 114 -417 199 -625 236 -113 20 -376 28 -475 14z m2335
-3464 c0 -8 8 -15 18 -15 16 -1 16 -1 0 -14 -10 -7 -18 -18 -18 -25 0 -6 -4
-11 -10 -11 -5 0 -10 7 -10 15 0 8 -7 15 -15 15 -8 0 -15 5 -15 10 0 6 7 10
15 10 8 0 15 7 15 15 0 8 5 15 10 15 6 0 10 -7 10 -15z"/>
</g>
</svg>
