<svg width="75" height="75" viewBox="0 0 75 75" fill="none" xmlns="http://www.w3.org/2000/svg">
<path d="M37.5 17.2222C57.6584 17.2222 74 13.5907 74 9.1111C74 4.63146 57.6584 1 37.5 1C17.3416 1 1 4.63146 1 9.1111C1 13.5907 17.3416 17.2222 37.5 17.2222Z" stroke="#E84234" stroke-miterlimit="10" stroke-linecap="round" stroke-linejoin="round"/>
<path d="M1 10.4619V29.3878C1 33.173 17.2222 36.1471 37.5 36.1471C57.7778 36.1471 74 33.173 74 29.3878V10.4619" stroke="#E84234" stroke-miterlimit="10" stroke-linecap="round" stroke-linejoin="round"/>
<path d="M52.3717 28.0373C53.8649 28.0373 55.0754 26.8268 55.0754 25.3336C55.0754 23.8404 53.8649 22.6299 52.3717 22.6299C50.8785 22.6299 49.668 23.8404 49.668 25.3336C49.668 26.8268 50.8785 28.0373 52.3717 28.0373Z" stroke="#E84234" stroke-miterlimit="10" stroke-linecap="round" stroke-linejoin="round"/>
<path d="M14.5195 25.334H38.8529" stroke="#E84234" stroke-miterlimit="10" stroke-linecap="round" stroke-linejoin="round"/>
<path d="M1 29.3895V48.3154C1 52.1006 17.2222 55.0747 37.5 55.0747C57.7778 55.0747 74 52.1006 74 48.3154V29.3895" stroke="#E84234" stroke-miterlimit="10" stroke-linecap="round" stroke-linejoin="round"/>
<path d="M52.3717 46.9631C53.8649 46.9631 55.0754 45.7526 55.0754 44.2594C55.0754 42.7662 53.8649 41.5557 52.3717 41.5557C50.8785 41.5557 49.668 42.7662 49.668 44.2594C49.668 45.7526 50.8785 46.9631 52.3717 46.9631Z" stroke="#E84234" stroke-miterlimit="10" stroke-linecap="round" stroke-linejoin="round"/>
<path d="M14.5195 44.2588H38.8529" stroke="#E84234" stroke-miterlimit="10" stroke-linecap="round" stroke-linejoin="round"/>
<path d="M1 48.3145V67.2404C1 71.0255 17.2222 73.9996 37.5 73.9996C57.7778 73.9996 74 71.0255 74 67.2404V48.3145" stroke="#E84234" stroke-miterlimit="10" stroke-linecap="round" stroke-linejoin="round"/>
<path d="M52.3717 65.8879C53.8649 65.8879 55.0754 64.6774 55.0754 63.1842C55.0754 61.691 53.8649 60.4805 52.3717 60.4805C50.8785 60.4805 49.668 61.691 49.668 63.1842C49.668 64.6774 50.8785 65.8879 52.3717 65.8879Z" stroke="#E84234" stroke-miterlimit="10" stroke-linecap="round" stroke-linejoin="round"/>
<path d="M14.5195 63.1855H38.8529" stroke="#E84234" stroke-miterlimit="10" stroke-linecap="round" stroke-linejoin="round"/>
</svg>
