<svg width="2017" height="2017" viewBox="0 0 2017 2017" fill="none" xmlns="http://www.w3.org/2000/svg">
<g opacity="0.6">
<path d="M1851.95 1246.35C2048.76 1443.15 2071.83 1736.33 1906.01 1906.01C1740.2 2071.81 1443.17 2048.75 1246.36 1851.94C1115.17 1720.75 1055.33 1527.79 1028.79 1358.87C1002.35 1190.65 1008.95 1046.35 1010.91 1010.87C1046.36 1007.01 1190.65 1000.41 1358.88 1027.33C1527.79 1054.36 1720.76 1115.16 1851.95 1246.35Z" stroke="#E84234"/>
<path d="M770.645 165.052C901.833 296.241 961.668 489.203 988.212 658.119C1014.64 826.307 1008.05 970.572 1006.09 1006.09C970.572 1008.05 826.307 1014.64 658.119 988.212C489.203 961.668 296.241 901.833 165.052 770.645C-31.755 573.837 -54.8264 280.662 110.987 110.987C280.662 -54.8263 573.838 -31.755 770.645 165.052Z" stroke="#E84234"/>
<path d="M1246.35 165.055L1246.36 165.052C1443.16 -31.7557 1736.34 -54.8265 1906.01 110.989C2071.82 276.799 2048.76 573.834 1851.95 770.645C1720.76 901.833 1527.8 961.668 1358.88 988.212C1190.69 1014.64 1046.43 1008.05 1010.91 1006.09C1008.95 970.564 1002.36 825.339 1028.79 656.67C1055.33 487.271 1115.17 294.311 1246.35 165.055Z" stroke="#E84234"/>
<path d="M165.049 1246.35L165.052 1246.35C296.241 1115.16 489.203 1055.32 658.119 1028.78C826.307 1002.35 970.572 1008.94 1006.09 1010.9C1008.05 1046.42 1014.64 1190.69 988.212 1358.87C961.668 1527.79 901.833 1720.75 770.645 1851.94C573.838 2048.75 280.662 2071.82 110.987 1906.01C-54.828 1736.33 -31.7523 1439.29 165.049 1246.35Z" stroke="#E84234"/>
</g>
</svg>
