<svg width="50" height="50" viewBox="0 0 50 50" fill="none" xmlns="http://www.w3.org/2000/svg">
<g clip-path="url(#clip0_189_1173)">
<circle cx="25" cy="25" r="25" fill="#2CB742"/>
<path d="M34.9032 15.1038C32.2844 12.4694 28.7208 10.9915 25.0057 11C17.2824 11 11.0029 17.2778 11 24.9936C10.9957 27.6279 11.7376 30.2108 13.1399 32.442L13.473 32.9709L12.0578 38.1352L17.3567 36.7459L17.8685 37.0489C20.0169 38.3239 22.4813 38.9986 24.9943 39H25C32.7161 39 38.9971 32.7222 38.9999 25.005C39.0114 21.2901 37.5362 17.7252 34.9032 15.1038ZM33.2393 31.0098C32.8891 31.9932 31.1709 32.9409 30.399 33.0109C29.6271 33.081 28.9038 33.3597 25.3488 31.9575C21.0704 30.2708 18.3688 25.8855 18.1587 25.6054C17.9485 25.3238 16.4405 23.3241 16.4405 21.2529C16.4405 19.1818 17.5283 18.164 17.9142 17.7438C18.3002 17.3221 18.7562 17.2178 19.0363 17.2178L19.8425 17.2278C20.1427 17.2392 20.4744 17.2535 20.7903 17.9554C21.1648 18.7873 21.9824 20.8684 22.0868 21.08C22.1926 21.2901 22.2626 21.5374 22.1225 21.8175C21.9824 22.0977 21.9124 22.2735 21.7023 22.5193C21.4921 22.7652 21.2591 23.0682 21.0704 23.2569C20.8589 23.467 20.6402 23.6943 20.886 24.116C21.1319 24.5376 21.9767 25.9141 23.2275 27.0304C24.8356 28.4641 26.1907 28.9086 26.6124 29.1188C27.0341 29.3289 27.2785 29.2946 27.5244 29.013C27.7702 28.7314 28.575 27.7851 28.8566 27.3635C29.1382 26.9418 29.4184 27.0119 29.8043 27.1519C30.1903 27.292 32.2587 28.3112 32.6804 28.5213C33.1021 28.7314 33.3822 28.8372 33.488 29.013C33.5938 29.1888 33.5909 30.0278 33.2393 31.0098Z" fill="white"/>
</g>
<defs>
<clipPath id="clip0_189_1173">
<rect width="50" height="50" rx="5" fill="white"/>
</clipPath>
</defs>
</svg>
