<svg width="75" height="75" viewBox="0 0 75 75" fill="none" xmlns="http://www.w3.org/2000/svg">
<path d="M71.2963 74H3.7037C2.08148 74 1 72.9145 1 71.2863V55.0039C1 53.3757 2.08148 52.2902 3.7037 52.2902H71.2963C72.9185 52.2902 74 53.3757 74 55.0039V71.2863C74 72.9145 72.9185 74 71.2963 74Z" stroke="#E84234" stroke-miterlimit="10" stroke-linecap="round" stroke-linejoin="round"/>
<path d="M36.1489 60.4316H6.4082V65.8591H36.1489V60.4316Z" stroke="#E84234" stroke-miterlimit="10" stroke-linecap="round" stroke-linejoin="round"/>
<path d="M44.2603 65.8591C45.7536 65.8591 46.964 64.6441 46.964 63.1454C46.964 61.6466 45.7536 60.4316 44.2603 60.4316C42.7671 60.4316 41.5566 61.6466 41.5566 63.1454C41.5566 64.6441 42.7671 65.8591 44.2603 65.8591Z" stroke="#E84234" stroke-miterlimit="10" stroke-linecap="round" stroke-linejoin="round"/>
<path d="M55.0728 65.8591C56.5661 65.8591 57.7765 64.6441 57.7765 63.1454C57.7765 61.6466 56.5661 60.4316 55.0728 60.4316C53.5796 60.4316 52.3691 61.6466 52.3691 63.1454C52.3691 64.6441 53.5796 65.8591 55.0728 65.8591Z" stroke="#E84234" stroke-miterlimit="10" stroke-linecap="round" stroke-linejoin="round"/>
<path d="M65.8893 65.8591C67.3825 65.8591 68.593 64.6441 68.593 63.1454C68.593 61.6466 67.3825 60.4316 65.8893 60.4316C64.396 60.4316 63.1855 61.6466 63.1855 63.1454C63.1855 64.6441 64.396 65.8591 65.8893 65.8591Z" stroke="#E84234" stroke-miterlimit="10" stroke-linecap="round" stroke-linejoin="round"/>
<path d="M73.4576 53.6474L63.1835 41.4355H11.8131L1.53906 53.6474" stroke="#E84234" stroke-miterlimit="10" stroke-linecap="round" stroke-linejoin="round"/>
<path d="M49.668 36.0084V11.5848C49.668 9.95659 50.7495 8.87109 52.3717 8.87109C53.9939 8.87109 55.0754 9.95659 55.0754 11.5848V36.0084" stroke="#E84234" stroke-miterlimit="10" stroke-linecap="round" stroke-linejoin="round"/>
<path d="M44.2602 16.4688C41.5565 13.755 41.5565 9.41306 44.2602 6.9707" stroke="#E84234" stroke-miterlimit="10" stroke-linecap="round" stroke-linejoin="round"/>
<path d="M60.4824 6.69727C63.1861 9.411 63.1861 13.753 60.4824 16.1953" stroke="#E84234" stroke-miterlimit="10" stroke-linecap="round" stroke-linejoin="round"/>
<path d="M41.2816 19.1822C36.9556 14.8402 36.9556 8.05584 41.2816 3.71387" stroke="#E84234" stroke-miterlimit="10" stroke-linecap="round" stroke-linejoin="round"/>
<path d="M63.4551 3.9834C67.781 8.32537 67.781 15.1097 63.4551 19.4517" stroke="#E84234" stroke-miterlimit="10" stroke-linecap="round" stroke-linejoin="round"/>
<path d="M38.5788 22.1671C32.901 16.4683 32.901 6.97022 38.5788 1" stroke="#E84234" stroke-miterlimit="10" stroke-linecap="round" stroke-linejoin="round"/>
<path d="M66.1582 1C71.836 6.69884 71.836 16.1969 66.1582 22.1671" stroke="#E84234" stroke-miterlimit="10" stroke-linecap="round" stroke-linejoin="round"/>
</svg>
