<svg width="816" height="810" viewBox="0 0 816 810" fill="none" xmlns="http://www.w3.org/2000/svg">
<g opacity="0.6">
<path d="M940.185 566.327C1039.95 666.093 1051.6 814.659 967.608 900.611C883.617 984.598 733.097 972.95 633.329 873.182C566.835 806.688 536.493 708.865 523.031 623.196C509.676 538.21 512.945 465.267 513.953 446.925C532.264 444.964 605.205 441.695 690.197 455.294C775.866 469.001 873.69 499.832 940.185 566.327Z" stroke="white"/>
<path d="M391.663 17.8095C458.157 84.3035 488.499 182.126 501.961 267.796C515.31 352.745 512.05 425.662 511.041 444.043C492.66 445.052 419.743 448.312 334.794 434.963C249.124 421.501 151.302 391.159 84.8077 324.665C-14.9575 224.9 -26.6121 76.3358 57.3817 -9.61646C143.334 -93.6103 291.898 -81.9557 391.663 17.8095Z" stroke="white"/>
<path d="M633.326 17.8122L633.329 17.8096C733.095 -81.9563 881.661 -93.6103 967.613 -9.61447C1051.6 74.3761 1039.95 224.896 940.185 324.665C873.691 391.159 775.868 421.501 690.199 434.963C605.249 448.312 532.332 445.052 513.951 444.043C512.942 425.655 509.682 352.254 523.031 267.061C536.494 181.146 566.835 83.3255 633.326 17.8122Z" stroke="white"/>
<path d="M84.8042 566.331L84.8077 566.327C151.302 499.833 249.124 469.491 334.794 456.029C419.743 442.68 492.66 445.94 511.041 446.949C512.05 465.33 515.311 538.247 501.961 623.196C488.499 708.866 458.157 806.688 391.663 873.182C291.898 972.948 143.333 984.602 57.3813 900.608C-26.6136 814.654 -14.9544 664.133 84.8042 566.331Z" stroke="white"/>
</g>
</svg>
