<svg width="339" height="339" viewBox="0 0 339 339" fill="none" xmlns="http://www.w3.org/2000/svg">
<g opacity="0.6">
<path d="M310.052 209.154C342.914 242.016 346.696 290.882 319.109 319.112C291.528 346.69 242.02 342.914 209.156 310.05C187.265 288.158 177.257 255.928 172.814 227.652C168.474 200.033 169.455 176.267 169.803 169.777C176.263 169.131 200.027 168.149 227.653 172.569C255.928 177.093 288.16 187.262 310.052 209.154Z" stroke="#E84234"/>
<path d="M128.849 27.9534C150.74 49.8446 160.748 82.0748 165.191 110.351C169.527 137.939 168.553 161.682 168.204 168.204C161.682 168.553 137.939 169.527 110.351 165.191C82.0748 160.748 49.8446 150.74 27.9534 128.849C-4.90753 95.9878 -8.69101 47.1243 18.8933 18.8933C47.1243 -8.69101 95.9878 -4.90753 128.849 27.9534Z" stroke="#E84234"/>
<path d="M209.154 27.956L209.156 27.9534C242.018 -4.90852 290.884 -8.69124 319.114 18.8958C346.692 46.477 342.916 95.9846 310.052 128.849C288.161 150.74 255.93 160.748 227.654 165.191C200.067 169.527 176.323 168.553 169.802 168.204C169.452 161.675 168.478 137.775 172.814 110.108C177.257 81.75 187.266 49.5224 209.154 27.956Z" stroke="#E84234"/>
<path d="M27.9499 209.158L27.9534 209.155C49.8446 187.263 82.0748 177.255 110.351 172.812C137.939 168.477 161.682 169.451 168.204 169.8C168.553 176.321 169.527 200.065 165.191 227.653C160.748 255.929 150.74 288.159 128.849 310.05C95.9879 342.911 47.1245 346.694 18.8936 319.11C-8.69258 290.878 -4.90478 241.369 27.9499 209.158Z" stroke="#E84234"/>
</g>
</svg>
