<svg width="450" height="450" viewBox="0 0 450 450" fill="none" xmlns="http://www.w3.org/2000/svg">
<g opacity="0.6">
<path d="M412.903 278.34C456.7 322.138 461.77 387.3 424.962 424.965C388.16 461.763 322.142 456.7 278.342 412.901C249.16 383.719 235.828 340.767 229.911 303.11C224.098 266.119 225.451 234.318 225.908 225.882C234.314 225.02 266.113 223.666 303.111 229.586C340.767 235.611 383.72 249.157 412.903 278.34Z" stroke="white"/>
<path d="M171.659 37.0984C200.841 66.2801 214.172 109.232 220.09 146.889C225.898 183.847 224.552 215.624 224.094 224.094C215.624 224.552 183.847 225.898 146.889 220.09C109.232 214.172 66.2801 200.841 37.0984 171.659C-6.69836 127.862 -11.7684 62.7021 25.0363 25.0363C62.7021 -11.7684 127.862 -6.69836 171.659 37.0984Z" stroke="white"/>
<path d="M278.339 37.101L278.342 37.0984C322.14 -6.69932 387.302 -11.7686 424.967 25.0389C461.765 61.8405 456.702 127.859 412.903 171.659C383.721 200.841 340.769 214.172 303.112 220.09C266.154 225.898 234.377 224.552 225.907 224.094C225.449 215.617 224.103 183.63 229.911 146.566C235.829 108.8 249.161 65.8508 278.339 37.101Z" stroke="white"/>
<path d="M37.0949 278.344L37.0984 278.34C66.2801 249.158 109.232 235.827 146.889 229.909C183.847 224.101 215.624 225.447 224.094 225.905C224.552 234.375 225.898 266.152 220.09 303.11C214.172 340.767 200.841 383.719 171.659 412.901C127.862 456.697 62.7024 461.767 25.0366 424.963C-11.77 387.296 -6.69561 321.276 37.0949 278.344Z" stroke="white"/>
</g>
</svg>
