<svg width="248" height="494" viewBox="0 0 248 494" fill="none" xmlns="http://www.w3.org/2000/svg">
<g clip-path="url(#clip0_177_1234)">
<path d="M239.9 116.5H8V493.4H239.9V116.5Z" stroke="#E84234" stroke-miterlimit="10"/>
<path d="M247.4 75H0.5V116.5H247.4V75Z" stroke="#E84234" stroke-miterlimit="10"/>
<path d="M187.6 86.6H20.5996V104.9H187.6V86.6Z" stroke="#E84234" stroke-miterlimit="10"/>
<path d="M230.9 92.7H200.1V98.8H230.9V92.7Z" stroke="#E84234" stroke-miterlimit="10"/>
<path d="M175.8 116.5H26.7002V462.1H175.8V116.5Z" stroke="#E84234" stroke-miterlimit="10"/>
<path d="M247.4 462.1H0.5V493.4H247.4V462.1Z" stroke="#E84234" stroke-miterlimit="10"/>
<path d="M232.6 116.5H187.6V462.1H232.6V116.5Z" stroke="#E84234" stroke-miterlimit="10"/>
<path d="M247.4 0.5H0.5V75H247.4V0.5Z" stroke="#E84234" stroke-miterlimit="10"/>
<path fill-rule="evenodd" clip-rule="evenodd" d="M194.3 126.3H225.7C227.4 126.3 228.7 127.7 228.7 129.3C228.7 131 227.3 132.3 225.7 132.3H194.3C192.6 132.3 191.3 130.9 191.3 129.3C191.3 127.7 192.6 126.3 194.3 126.3Z" stroke="#E84234" stroke-miterlimit="10"/>
<path fill-rule="evenodd" clip-rule="evenodd" d="M194.3 135.3H225.7C227.4 135.3 228.7 136.7 228.7 138.3C228.7 140 227.3 141.3 225.7 141.3H194.3C192.6 141.3 191.3 139.9 191.3 138.3C191.3 136.7 192.6 135.3 194.3 135.3Z" stroke="#E84234" stroke-miterlimit="10"/>
<path fill-rule="evenodd" clip-rule="evenodd" d="M194.3 144.3H225.7C227.4 144.3 228.7 145.7 228.7 147.3C228.7 149 227.3 150.3 225.7 150.3H194.3C192.6 150.3 191.3 148.9 191.3 147.3C191.3 145.7 192.6 144.3 194.3 144.3Z" stroke="#E84234" stroke-miterlimit="10"/>
<path fill-rule="evenodd" clip-rule="evenodd" d="M194.3 153.3H225.7C227.4 153.3 228.7 154.7 228.7 156.3C228.7 158 227.3 159.3 225.7 159.3H194.3C192.6 159.3 191.3 157.9 191.3 156.3C191.3 154.7 192.6 153.3 194.3 153.3Z" stroke="#E84234" stroke-miterlimit="10"/>
<path fill-rule="evenodd" clip-rule="evenodd" d="M194.3 162.3H225.7C227.4 162.3 228.7 163.7 228.7 165.3C228.7 167 227.3 168.3 225.7 168.3H194.3C192.6 168.3 191.3 166.9 191.3 165.3C191.3 163.7 192.6 162.3 194.3 162.3Z" stroke="#E84234" stroke-miterlimit="10"/>
<path fill-rule="evenodd" clip-rule="evenodd" d="M194.3 171.3H225.7C227.4 171.3 228.7 172.7 228.7 174.3C228.7 176 227.3 177.3 225.7 177.3H194.3C192.6 177.3 191.3 175.9 191.3 174.3C191.3 172.7 192.6 171.3 194.3 171.3Z" stroke="#E84234" stroke-miterlimit="10"/>
<path d="M228.8 184.8H191.3V225.4H228.8V184.8Z" stroke="#E84234" stroke-miterlimit="10"/>
<path d="M196.8 188.2H192.7V192.6H196.8V188.2Z" stroke="#E84234" stroke-miterlimit="10"/>
<path d="M196.8 194.1H192.7V198.5H196.8V194.1Z" stroke="#E84234" stroke-miterlimit="10"/>
<path d="M196.8 200H192.7V204.4H196.8V200Z" stroke="#E84234" stroke-miterlimit="10"/>
<path d="M196.8 205.9H192.7V210.3H196.8V205.9Z" stroke="#E84234" stroke-miterlimit="10"/>
<path d="M196.8 211.8H192.7V216.2H196.8V211.8Z" stroke="#E84234" stroke-miterlimit="10"/>
<path d="M196.8 217.7H192.7V222.1H196.8V217.7Z" stroke="#E84234" stroke-miterlimit="10"/>
<path fill-rule="evenodd" clip-rule="evenodd" d="M202.8 187.8H224C225.1 187.8 226 188.7 226 189.8C226 190.9 225.1 191.8 224 191.8H202.8C201.7 191.8 200.8 190.9 200.8 189.8C200.8 188.7 201.7 187.8 202.8 187.8Z" stroke="#E84234" stroke-miterlimit="10"/>
<path fill-rule="evenodd" clip-rule="evenodd" d="M202.8 193.8H224C225.1 193.8 226 194.7 226 195.8C226 196.9 225.1 197.8 224 197.8H202.8C201.7 197.8 200.8 196.9 200.8 195.8C200.8 194.7 201.7 193.8 202.8 193.8Z" stroke="#E84234" stroke-miterlimit="10"/>
<path fill-rule="evenodd" clip-rule="evenodd" d="M202.8 199.8H224C225.1 199.8 226 200.7 226 201.8C226 202.9 225.1 203.8 224 203.8H202.8C201.7 203.8 200.8 202.9 200.8 201.8C200.8 200.7 201.7 199.8 202.8 199.8Z" stroke="#E84234" stroke-miterlimit="10"/>
<path fill-rule="evenodd" clip-rule="evenodd" d="M202.8 205.8H224C225.1 205.8 226 206.7 226 207.8C226 208.9 225.1 209.8 224 209.8H202.8C201.7 209.8 200.8 208.9 200.8 207.8C200.8 206.7 201.7 205.8 202.8 205.8Z" stroke="#E84234" stroke-miterlimit="10"/>
<path fill-rule="evenodd" clip-rule="evenodd" d="M202.8 211.8H224C225.1 211.8 226 212.7 226 213.8C226 214.9 225.1 215.8 224 215.8H202.8C201.7 215.8 200.8 214.9 200.8 213.8C200.8 212.7 201.7 211.8 202.8 211.8Z" stroke="#E84234" stroke-miterlimit="10"/>
<path fill-rule="evenodd" clip-rule="evenodd" d="M202.8 217.7H224C225.1 217.7 226 218.6 226 219.7C226 220.8 225.1 221.7 224 221.7H202.8C201.7 221.7 200.8 220.8 200.8 219.7C200.8 218.7 201.7 217.7 202.8 217.7Z" stroke="#E84234" stroke-miterlimit="10"/>
<path fill-rule="evenodd" clip-rule="evenodd" d="M194.3 234H225.7C227.4 234 228.7 235.4 228.7 237C228.7 238.7 227.3 240 225.7 240H194.3C192.6 240 191.3 238.6 191.3 237C191.3 235.4 192.6 234 194.3 234Z" stroke="#E84234" stroke-miterlimit="10"/>
<path fill-rule="evenodd" clip-rule="evenodd" d="M194.3 243H225.7C227.4 243 228.7 244.4 228.7 246C228.7 247.7 227.3 249 225.7 249H194.3C192.6 249 191.3 247.6 191.3 246C191.3 244.4 192.6 243 194.3 243Z" stroke="#E84234" stroke-miterlimit="10"/>
<path fill-rule="evenodd" clip-rule="evenodd" d="M194.3 252H225.7C227.4 252 228.7 253.4 228.7 255C228.7 256.7 227.3 258 225.7 258H194.3C192.6 258 191.3 256.6 191.3 255C191.3 253.4 192.6 252 194.3 252Z" stroke="#E84234" stroke-miterlimit="10"/>
<path fill-rule="evenodd" clip-rule="evenodd" d="M194.3 261H225.7C227.4 261 228.7 262.4 228.7 264C228.7 265.7 227.3 267 225.7 267H194.3C192.6 267 191.3 265.6 191.3 264C191.3 262.4 192.6 261 194.3 261Z" stroke="#E84234" stroke-miterlimit="10"/>
<path fill-rule="evenodd" clip-rule="evenodd" d="M194.3 270H225.7C227.4 270 228.7 271.4 228.7 273C228.7 274.7 227.3 276 225.7 276H194.3C192.6 276 191.3 274.6 191.3 273C191.3 271.4 192.6 270 194.3 270Z" stroke="#E84234" stroke-miterlimit="10"/>
<path fill-rule="evenodd" clip-rule="evenodd" d="M194.3 279H225.7C227.4 279 228.7 280.4 228.7 282C228.7 283.7 227.3 285 225.7 285H194.3C192.6 285 191.3 283.6 191.3 282C191.3 280.4 192.6 279 194.3 279Z" stroke="#E84234" stroke-miterlimit="10"/>
<path fill-rule="evenodd" clip-rule="evenodd" d="M194.3 288H225.7C227.4 288 228.7 289.4 228.7 291C228.7 292.7 227.3 294 225.7 294H194.3C192.6 294 191.3 292.6 191.3 291C191.3 289.4 192.6 288 194.3 288Z" stroke="#E84234" stroke-miterlimit="10"/>
<path fill-rule="evenodd" clip-rule="evenodd" d="M194.3 297H225.7C227.4 297 228.7 298.4 228.7 300C228.7 301.7 227.3 303 225.7 303H194.3C192.6 303 191.3 301.6 191.3 300C191.3 298.4 192.6 297 194.3 297Z" stroke="#E84234" stroke-miterlimit="10"/>
<path fill-rule="evenodd" clip-rule="evenodd" d="M194.3 306H225.7C227.4 306 228.7 307.4 228.7 309C228.7 310.7 227.3 312 225.7 312H194.3C192.6 312 191.3 310.6 191.3 309C191.3 307.4 192.6 306 194.3 306Z" stroke="#E84234" stroke-miterlimit="10"/>
<path fill-rule="evenodd" clip-rule="evenodd" d="M194.3 315H225.7C227.4 315 228.7 316.4 228.7 318C228.7 319.7 227.3 321 225.7 321H194.3C192.6 321 191.3 319.6 191.3 318C191.3 316.4 192.6 315 194.3 315Z" stroke="#E84234" stroke-miterlimit="10"/>
<path fill-rule="evenodd" clip-rule="evenodd" d="M194.3 324H225.7C227.4 324 228.7 325.4 228.7 327C228.7 328.7 227.3 330 225.7 330H194.3C192.6 330 191.3 328.6 191.3 327C191.3 325.4 192.6 324 194.3 324Z" stroke="#E84234" stroke-miterlimit="10"/>
<path fill-rule="evenodd" clip-rule="evenodd" d="M194.3 333H225.7C227.4 333 228.7 334.4 228.7 336C228.7 337.7 227.3 339 225.7 339H194.3C192.6 339 191.3 337.6 191.3 336C191.3 334.4 192.6 333 194.3 333Z" stroke="#E84234" stroke-miterlimit="10"/>
<path fill-rule="evenodd" clip-rule="evenodd" d="M194.3 342H225.7C227.4 342 228.7 343.4 228.7 345C228.7 346.7 227.3 348 225.7 348H194.3C192.6 348 191.3 346.6 191.3 345C191.3 343.4 192.6 342 194.3 342Z" stroke="#E84234" stroke-miterlimit="10"/>
<path fill-rule="evenodd" clip-rule="evenodd" d="M194.3 351H225.7C227.4 351 228.7 352.4 228.7 354C228.7 355.7 227.3 357 225.7 357H194.3C192.6 357 191.3 355.6 191.3 354C191.3 352.4 192.6 351 194.3 351Z" stroke="#E84234" stroke-miterlimit="10"/>
<path fill-rule="evenodd" clip-rule="evenodd" d="M194.3 360H225.7C227.4 360 228.7 361.4 228.7 363C228.7 364.7 227.3 366 225.7 366H194.3C192.6 366 191.3 364.6 191.3 363C191.3 361.4 192.6 360 194.3 360Z" stroke="#E84234" stroke-miterlimit="10"/>
<path fill-rule="evenodd" clip-rule="evenodd" d="M194.3 369H225.7C227.4 369 228.7 370.4 228.7 372C228.7 373.7 227.3 375 225.7 375H194.3C192.6 375 191.3 373.6 191.3 372C191.3 370.4 192.6 369 194.3 369Z" stroke="#E84234" stroke-miterlimit="10"/>
<path fill-rule="evenodd" clip-rule="evenodd" d="M194.3 378H225.7C227.4 378 228.7 379.4 228.7 381C228.7 382.7 227.3 384 225.7 384H194.3C192.6 384 191.3 382.6 191.3 381C191.3 379.4 192.6 378 194.3 378Z" stroke="#E84234" stroke-miterlimit="10"/>
<path fill-rule="evenodd" clip-rule="evenodd" d="M194.3 387H225.7C227.4 387 228.7 388.4 228.7 390C228.7 391.7 227.3 393 225.7 393H194.3C192.6 393 191.3 391.6 191.3 390C191.3 388.4 192.6 387 194.3 387Z" stroke="#E84234" stroke-miterlimit="10"/>
<path fill-rule="evenodd" clip-rule="evenodd" d="M198.5 399.5H221.6C222.7 399.5 223.6 400.4 223.6 401.5C223.6 402.6 222.7 403.5 221.6 403.5H198.5C197.4 403.5 196.5 402.6 196.5 401.5C196.5 400.4 197.4 399.5 198.5 399.5Z" stroke="#E84234" stroke-miterlimit="10"/>
<path fill-rule="evenodd" clip-rule="evenodd" d="M198.5 405.4H221.6C222.7 405.4 223.6 406.3 223.6 407.4C223.6 408.5 222.7 409.4 221.6 409.4H198.5C197.4 409.4 196.5 408.5 196.5 407.4C196.5 406.2 197.4 405.4 198.5 405.4Z" stroke="#E84234" stroke-miterlimit="10"/>
<path fill-rule="evenodd" clip-rule="evenodd" d="M198.5 411.2H221.6C222.7 411.2 223.6 412.1 223.6 413.2C223.6 414.3 222.7 415.2 221.6 415.2H198.5C197.4 415.2 196.5 414.3 196.5 413.2C196.5 412.1 197.4 411.2 198.5 411.2Z" stroke="#E84234" stroke-miterlimit="10"/>
<path fill-rule="evenodd" clip-rule="evenodd" d="M198.5 417H221.6C222.7 417 223.6 417.9 223.6 419C223.6 420.1 222.7 421 221.6 421H198.5C197.4 421 196.5 420.1 196.5 419C196.5 417.9 197.4 417 198.5 417Z" stroke="#E84234" stroke-miterlimit="10"/>
<path fill-rule="evenodd" clip-rule="evenodd" d="M198.5 422.8H221.6C222.7 422.8 223.6 423.7 223.6 424.8C223.6 425.9 222.7 426.8 221.6 426.8H198.5C197.4 426.8 196.5 425.9 196.5 424.8C196.5 423.7 197.4 422.8 198.5 422.8Z" stroke="#E84234" stroke-miterlimit="10"/>
<path fill-rule="evenodd" clip-rule="evenodd" d="M198.5 428.7H221.6C222.7 428.7 223.6 429.6 223.6 430.7C223.6 431.8 222.7 432.7 221.6 432.7H198.5C197.4 432.7 196.5 431.8 196.5 430.7C196.5 429.6 197.4 428.7 198.5 428.7Z" stroke="#E84234" stroke-miterlimit="10"/>
<path fill-rule="evenodd" clip-rule="evenodd" d="M198.5 434.5H221.6C222.7 434.5 223.6 435.4 223.6 436.5C223.6 437.6 222.7 438.5 221.6 438.5H198.5C197.4 438.5 196.5 437.6 196.5 436.5C196.5 435.4 197.4 434.5 198.5 434.5Z" stroke="#E84234" stroke-miterlimit="10"/>
<path fill-rule="evenodd" clip-rule="evenodd" d="M198.5 440.3H221.6C222.7 440.3 223.6 441.2 223.6 442.3C223.6 443.4 222.7 444.3 221.6 444.3H198.5C197.4 444.3 196.5 443.4 196.5 442.3C196.5 441.2 197.4 440.3 198.5 440.3Z" stroke="#E84234" stroke-miterlimit="10"/>
<path fill-rule="evenodd" clip-rule="evenodd" d="M198.5 446.2H221.6C222.7 446.2 223.6 447.1 223.6 448.2C223.6 449.3 222.7 450.2 221.6 450.2H198.5C197.4 450.2 196.5 449.3 196.5 448.2C196.5 447 197.4 446.2 198.5 446.2Z" stroke="#E84234" stroke-miterlimit="10"/>
<path fill-rule="evenodd" clip-rule="evenodd" d="M198.5 452H221.6C222.7 452 223.6 452.9 223.6 454C223.6 455.1 222.7 456 221.6 456H198.5C197.4 456 196.5 455.1 196.5 454C196.5 452.9 197.4 452 198.5 452Z" stroke="#E84234" stroke-miterlimit="10"/>
<path fill-rule="evenodd" clip-rule="evenodd" d="M24.0996 23.1V10.2C24.0996 9.29998 24.7996 8.59998 25.6996 8.59998C26.5996 8.59998 27.2996 9.29998 27.2996 10.2V23.1C27.2996 24 26.5996 24.7 25.6996 24.7C24.7996 24.7 24.0996 23.9 24.0996 23.1Z" stroke="#E84234" stroke-miterlimit="10"/>
<path fill-rule="evenodd" clip-rule="evenodd" d="M28.7998 23.1V10.2C28.7998 9.29998 29.4998 8.59998 30.3998 8.59998C31.2998 8.59998 31.9998 9.29998 31.9998 10.2V23.1C31.9998 24 31.2998 24.7 30.3998 24.7C29.4998 24.7 28.7998 23.9 28.7998 23.1Z" stroke="#E84234" stroke-miterlimit="10"/>
<path fill-rule="evenodd" clip-rule="evenodd" d="M33.5 23.1V10.2C33.5 9.29998 34.2 8.59998 35.1 8.59998C36 8.59998 36.7 9.29998 36.7 10.2V23.1C36.7 24 36 24.7 35.1 24.7C34.2 24.7 33.5 23.9 33.5 23.1Z" stroke="#E84234" stroke-miterlimit="10"/>
<path fill-rule="evenodd" clip-rule="evenodd" d="M38.2002 23.1V10.2C38.2002 9.29998 38.9002 8.59998 39.8002 8.59998C40.7002 8.59998 41.4002 9.29998 41.4002 10.2V23.1C41.4002 24 40.7002 24.7 39.8002 24.7C38.9002 24.7 38.2002 23.9 38.2002 23.1Z" stroke="#E84234" stroke-miterlimit="10"/>
<path fill-rule="evenodd" clip-rule="evenodd" d="M42.9004 23.1V10.2C42.9004 9.29998 43.6004 8.59998 44.5004 8.59998C45.4004 8.59998 46.1004 9.29998 46.1004 10.2V23.1C46.1004 24 45.4004 24.7 44.5004 24.7C43.6004 24.7 42.9004 23.9 42.9004 23.1Z" stroke="#E84234" stroke-miterlimit="10"/>
<path fill-rule="evenodd" clip-rule="evenodd" d="M47.5996 23.1V10.2C47.5996 9.29998 48.2996 8.59998 49.1996 8.59998C50.0996 8.59998 50.7996 9.29998 50.7996 10.2V23.1C50.7996 24 50.0996 24.7 49.1996 24.7C48.2996 24.7 47.5996 23.9 47.5996 23.1Z" stroke="#E84234" stroke-miterlimit="10"/>
<path fill-rule="evenodd" clip-rule="evenodd" d="M52.2998 23.1V10.2C52.2998 9.29998 52.9998 8.59998 53.8998 8.59998C54.7998 8.59998 55.4998 9.29998 55.4998 10.2V23.1C55.4998 24 54.7998 24.7 53.8998 24.7C52.9998 24.7 52.2998 23.9 52.2998 23.1Z" stroke="#E84234" stroke-miterlimit="10"/>
<path fill-rule="evenodd" clip-rule="evenodd" d="M57 23.1V10.2C57 9.29998 57.7 8.59998 58.6 8.59998C59.5 8.59998 60.2 9.29998 60.2 10.2V23.1C60.2 24 59.5 24.7 58.6 24.7C57.7 24.7 57 23.9 57 23.1Z" stroke="#E84234" stroke-miterlimit="10"/>
<path fill-rule="evenodd" clip-rule="evenodd" d="M61.7002 23.1V10.2C61.7002 9.29998 62.4002 8.59998 63.3002 8.59998C64.2002 8.59998 64.9002 9.29998 64.9002 10.2V23.1C64.9002 24 64.2002 24.7 63.3002 24.7C62.4002 24.7 61.7002 23.9 61.7002 23.1Z" stroke="#E84234" stroke-miterlimit="10"/>
<path fill-rule="evenodd" clip-rule="evenodd" d="M66.4004 23.1V10.2C66.4004 9.29998 67.1004 8.59998 68.0004 8.59998C68.9004 8.59998 69.6004 9.29998 69.6004 10.2V23.1C69.6004 24 68.9004 24.7 68.0004 24.7C67.1004 24.7 66.4004 23.9 66.4004 23.1Z" stroke="#E84234" stroke-miterlimit="10"/>
<path fill-rule="evenodd" clip-rule="evenodd" d="M24.0996 43.6V30.7C24.0996 29.8 24.7996 29.1 25.6996 29.1C26.5996 29.1 27.2996 29.8 27.2996 30.7V43.6C27.2996 44.5 26.5996 45.2 25.6996 45.2C24.7996 45.2 24.0996 44.5 24.0996 43.6Z" stroke="#E84234" stroke-miterlimit="10"/>
<path fill-rule="evenodd" clip-rule="evenodd" d="M28.7998 43.6V30.7C28.7998 29.8 29.4998 29.1 30.3998 29.1C31.2998 29.1 31.9998 29.8 31.9998 30.7V43.6C31.9998 44.5 31.2998 45.2 30.3998 45.2C29.4998 45.2 28.7998 44.5 28.7998 43.6Z" stroke="#E84234" stroke-miterlimit="10"/>
<path fill-rule="evenodd" clip-rule="evenodd" d="M33.5 43.6V30.7C33.5 29.8 34.2 29.1 35.1 29.1C36 29.1 36.7 29.8 36.7 30.7V43.6C36.7 44.5 36 45.2 35.1 45.2C34.2 45.2 33.5 44.5 33.5 43.6Z" stroke="#E84234" stroke-miterlimit="10"/>
<path fill-rule="evenodd" clip-rule="evenodd" d="M38.2002 43.6V30.7C38.2002 29.8 38.9002 29.1 39.8002 29.1C40.7002 29.1 41.4002 29.8 41.4002 30.7V43.6C41.4002 44.5 40.7002 45.2 39.8002 45.2C38.9002 45.2 38.2002 44.5 38.2002 43.6Z" stroke="#E84234" stroke-miterlimit="10"/>
<path fill-rule="evenodd" clip-rule="evenodd" d="M42.9004 43.6V30.7C42.9004 29.8 43.6004 29.1 44.5004 29.1C45.4004 29.1 46.1004 29.8 46.1004 30.7V43.6C46.1004 44.5 45.4004 45.2 44.5004 45.2C43.6004 45.2 42.9004 44.5 42.9004 43.6Z" stroke="#E84234" stroke-miterlimit="10"/>
<path fill-rule="evenodd" clip-rule="evenodd" d="M47.5996 43.6V30.7C47.5996 29.8 48.2996 29.1 49.1996 29.1C50.0996 29.1 50.7996 29.8 50.7996 30.7V43.6C50.7996 44.5 50.0996 45.2 49.1996 45.2C48.2996 45.2 47.5996 44.5 47.5996 43.6Z" stroke="#E84234" stroke-miterlimit="10"/>
<path fill-rule="evenodd" clip-rule="evenodd" d="M52.2998 43.6V30.7C52.2998 29.8 52.9998 29.1 53.8998 29.1C54.7998 29.1 55.4998 29.8 55.4998 30.7V43.6C55.4998 44.5 54.7998 45.2 53.8998 45.2C52.9998 45.2 52.2998 44.5 52.2998 43.6Z" stroke="#E84234" stroke-miterlimit="10"/>
<path fill-rule="evenodd" clip-rule="evenodd" d="M57 43.6V30.7C57 29.8 57.7 29.1 58.6 29.1C59.5 29.1 60.2 29.8 60.2 30.7V43.6C60.2 44.5 59.5 45.2 58.6 45.2C57.7 45.2 57 44.5 57 43.6Z" stroke="#E84234" stroke-miterlimit="10"/>
<path fill-rule="evenodd" clip-rule="evenodd" d="M61.7002 43.6V30.7C61.7002 29.8 62.4002 29.1 63.3002 29.1C64.2002 29.1 64.9002 29.8 64.9002 30.7V43.6C64.9002 44.5 64.2002 45.2 63.3002 45.2C62.4002 45.2 61.7002 44.5 61.7002 43.6Z" stroke="#E84234" stroke-miterlimit="10"/>
<path fill-rule="evenodd" clip-rule="evenodd" d="M66.4004 43.6V30.7C66.4004 29.8 67.1004 29.1 68.0004 29.1C68.9004 29.1 69.6004 29.8 69.6004 30.7V43.6C69.6004 44.5 68.9004 45.2 68.0004 45.2C67.1004 45.2 66.4004 44.5 66.4004 43.6Z" stroke="#E84234" stroke-miterlimit="10"/>
<path fill-rule="evenodd" clip-rule="evenodd" d="M24.0996 64.1999V51.2999C24.0996 50.3999 24.7996 49.7 25.6996 49.7C26.5996 49.7 27.2996 50.3999 27.2996 51.2999V64.1999C27.2996 65.0999 26.5996 65.8 25.6996 65.8C24.7996 65.8 24.0996 65.0999 24.0996 64.1999Z" stroke="#E84234" stroke-miterlimit="10"/>
<path fill-rule="evenodd" clip-rule="evenodd" d="M28.7998 64.1999V51.2999C28.7998 50.3999 29.4998 49.7 30.3998 49.7C31.2998 49.7 31.9998 50.3999 31.9998 51.2999V64.1999C31.9998 65.0999 31.2998 65.8 30.3998 65.8C29.4998 65.8 28.7998 65.0999 28.7998 64.1999Z" stroke="#E84234" stroke-miterlimit="10"/>
<path fill-rule="evenodd" clip-rule="evenodd" d="M33.5 64.1999V51.2999C33.5 50.3999 34.2 49.7 35.1 49.7C36 49.7 36.7 50.3999 36.7 51.2999V64.1999C36.7 65.0999 36 65.8 35.1 65.8C34.2 65.8 33.5 65.0999 33.5 64.1999Z" stroke="#E84234" stroke-miterlimit="10"/>
<path fill-rule="evenodd" clip-rule="evenodd" d="M38.2002 64.1999V51.2999C38.2002 50.3999 38.9002 49.7 39.8002 49.7C40.7002 49.7 41.4002 50.3999 41.4002 51.2999V64.1999C41.4002 65.0999 40.7002 65.8 39.8002 65.8C38.9002 65.8 38.2002 65.0999 38.2002 64.1999Z" stroke="#E84234" stroke-miterlimit="10"/>
<path fill-rule="evenodd" clip-rule="evenodd" d="M42.9004 64.1999V51.2999C42.9004 50.3999 43.6004 49.7 44.5004 49.7C45.4004 49.7 46.1004 50.3999 46.1004 51.2999V64.1999C46.1004 65.0999 45.4004 65.8 44.5004 65.8C43.6004 65.8 42.9004 65.0999 42.9004 64.1999Z" stroke="#E84234" stroke-miterlimit="10"/>
<path fill-rule="evenodd" clip-rule="evenodd" d="M47.5996 64.1999V51.2999C47.5996 50.3999 48.2996 49.7 49.1996 49.7C50.0996 49.7 50.7996 50.3999 50.7996 51.2999V64.1999C50.7996 65.0999 50.0996 65.8 49.1996 65.8C48.2996 65.8 47.5996 65.0999 47.5996 64.1999Z" stroke="#E84234" stroke-miterlimit="10"/>
<path fill-rule="evenodd" clip-rule="evenodd" d="M52.2998 64.1999V51.2999C52.2998 50.3999 52.9998 49.7 53.8998 49.7C54.7998 49.7 55.4998 50.3999 55.4998 51.2999V64.1999C55.4998 65.0999 54.7998 65.8 53.8998 65.8C52.9998 65.8 52.2998 65.0999 52.2998 64.1999Z" stroke="#E84234" stroke-miterlimit="10"/>
<path fill-rule="evenodd" clip-rule="evenodd" d="M57 64.1999V51.2999C57 50.3999 57.7 49.7 58.6 49.7C59.5 49.7 60.2 50.3999 60.2 51.2999V64.1999C60.2 65.0999 59.5 65.8 58.6 65.8C57.7 65.8 57 65.0999 57 64.1999Z" stroke="#E84234" stroke-miterlimit="10"/>
<path fill-rule="evenodd" clip-rule="evenodd" d="M61.7002 64.1999V51.2999C61.7002 50.3999 62.4002 49.7 63.3002 49.7C64.2002 49.7 64.9002 50.3999 64.9002 51.2999V64.1999C64.9002 65.0999 64.2002 65.8 63.3002 65.8C62.4002 65.8 61.7002 65.0999 61.7002 64.1999Z" stroke="#E84234" stroke-miterlimit="10"/>
<path fill-rule="evenodd" clip-rule="evenodd" d="M66.4004 64.1999V51.2999C66.4004 50.3999 67.1004 49.7 68.0004 49.7C68.9004 49.7 69.6004 50.3999 69.6004 51.2999V64.1999C69.6004 65.0999 68.9004 65.8 68.0004 65.8C67.1004 65.8 66.4004 65.0999 66.4004 64.1999Z" stroke="#E84234" stroke-miterlimit="10"/>
<path fill-rule="evenodd" clip-rule="evenodd" d="M71.0996 23.1V10.2C71.0996 9.29998 71.7996 8.59998 72.6996 8.59998C73.5996 8.59998 74.2996 9.29998 74.2996 10.2V23.1C74.2996 24 73.5996 24.7 72.6996 24.7C71.7996 24.7 71.0996 23.9 71.0996 23.1Z" stroke="#E84234" stroke-miterlimit="10"/>
<path fill-rule="evenodd" clip-rule="evenodd" d="M75.7998 23.1V10.2C75.7998 9.29998 76.4998 8.59998 77.3998 8.59998C78.2998 8.59998 78.9998 9.29998 78.9998 10.2V23.1C78.9998 24 78.2998 24.7 77.3998 24.7C76.4998 24.7 75.7998 23.9 75.7998 23.1Z" stroke="#E84234" stroke-miterlimit="10"/>
<path fill-rule="evenodd" clip-rule="evenodd" d="M80.5 23.1V10.2C80.5 9.29998 81.2 8.59998 82.1 8.59998C83 8.59998 83.7 9.29998 83.7 10.2V23.1C83.7 24 83 24.7 82.1 24.7C81.2 24.7 80.5 23.9 80.5 23.1Z" stroke="#E84234" stroke-miterlimit="10"/>
<path fill-rule="evenodd" clip-rule="evenodd" d="M85.2002 23.1V10.2C85.2002 9.29998 85.9002 8.59998 86.8002 8.59998C87.7002 8.59998 88.4002 9.29998 88.4002 10.2V23.1C88.4002 24 87.7002 24.7 86.8002 24.7C85.9002 24.7 85.2002 23.9 85.2002 23.1Z" stroke="#E84234" stroke-miterlimit="10"/>
<path fill-rule="evenodd" clip-rule="evenodd" d="M89.9004 23.1V10.2C89.9004 9.29998 90.6004 8.59998 91.5004 8.59998C92.4004 8.59998 93.1004 9.29998 93.1004 10.2V23.1C93.1004 24 92.4004 24.7 91.5004 24.7C90.6004 24.7 89.9004 23.9 89.9004 23.1Z" stroke="#E84234" stroke-miterlimit="10"/>
<path fill-rule="evenodd" clip-rule="evenodd" d="M94.5996 23.1V10.2C94.5996 9.29998 95.2996 8.59998 96.1996 8.59998C97.0996 8.59998 97.7996 9.29998 97.7996 10.2V23.1C97.7996 24 97.0996 24.7 96.1996 24.7C95.2996 24.7 94.5996 23.9 94.5996 23.1Z" stroke="#E84234" stroke-miterlimit="10"/>
<path fill-rule="evenodd" clip-rule="evenodd" d="M99.2998 23.1V10.2C99.2998 9.29998 99.9998 8.59998 100.9 8.59998C101.8 8.59998 102.5 9.29998 102.5 10.2V23.1C102.5 24 101.8 24.7 100.9 24.7C99.9998 24.7 99.2998 23.9 99.2998 23.1Z" stroke="#E84234" stroke-miterlimit="10"/>
<path fill-rule="evenodd" clip-rule="evenodd" d="M104 23.1V10.2C104 9.29998 104.7 8.59998 105.6 8.59998C106.5 8.59998 107.2 9.29998 107.2 10.2V23.1C107.2 24 106.5 24.7 105.6 24.7C104.7 24.7 104 23.9 104 23.1Z" stroke="#E84234" stroke-miterlimit="10"/>
<path fill-rule="evenodd" clip-rule="evenodd" d="M108.7 23.1V10.2C108.7 9.29998 109.4 8.59998 110.3 8.59998C111.2 8.59998 111.9 9.29998 111.9 10.2V23.1C111.9 24 111.2 24.7 110.3 24.7C109.4 24.7 108.7 23.9 108.7 23.1Z" stroke="#E84234" stroke-miterlimit="10"/>
<path fill-rule="evenodd" clip-rule="evenodd" d="M113.4 23.1V10.2C113.4 9.29998 114.1 8.59998 115 8.59998C115.9 8.59998 116.6 9.29998 116.6 10.2V23.1C116.6 24 115.9 24.7 115 24.7C114.1 24.7 113.4 23.9 113.4 23.1Z" stroke="#E84234" stroke-miterlimit="10"/>
<path fill-rule="evenodd" clip-rule="evenodd" d="M71.0996 43.6V30.7C71.0996 29.8 71.7996 29.1 72.6996 29.1C73.5996 29.1 74.2996 29.8 74.2996 30.7V43.6C74.2996 44.5 73.5996 45.2 72.6996 45.2C71.7996 45.2 71.0996 44.5 71.0996 43.6Z" stroke="#E84234" stroke-miterlimit="10"/>
<path fill-rule="evenodd" clip-rule="evenodd" d="M75.7998 43.6V30.7C75.7998 29.8 76.4998 29.1 77.3998 29.1C78.2998 29.1 78.9998 29.8 78.9998 30.7V43.6C78.9998 44.5 78.2998 45.2 77.3998 45.2C76.4998 45.2 75.7998 44.5 75.7998 43.6Z" stroke="#E84234" stroke-miterlimit="10"/>
<path fill-rule="evenodd" clip-rule="evenodd" d="M80.5 43.6V30.7C80.5 29.8 81.2 29.1 82.1 29.1C83 29.1 83.7 29.8 83.7 30.7V43.6C83.7 44.5 83 45.2 82.1 45.2C81.2 45.2 80.5 44.5 80.5 43.6Z" stroke="#E84234" stroke-miterlimit="10"/>
<path fill-rule="evenodd" clip-rule="evenodd" d="M85.2002 43.6V30.7C85.2002 29.8 85.9002 29.1 86.8002 29.1C87.7002 29.1 88.4002 29.8 88.4002 30.7V43.6C88.4002 44.5 87.7002 45.2 86.8002 45.2C85.9002 45.2 85.2002 44.5 85.2002 43.6Z" stroke="#E84234" stroke-miterlimit="10"/>
<path fill-rule="evenodd" clip-rule="evenodd" d="M89.9004 43.6V30.7C89.9004 29.8 90.6004 29.1 91.5004 29.1C92.4004 29.1 93.1004 29.8 93.1004 30.7V43.6C93.1004 44.5 92.4004 45.2 91.5004 45.2C90.6004 45.2 89.9004 44.5 89.9004 43.6Z" stroke="#E84234" stroke-miterlimit="10"/>
<path fill-rule="evenodd" clip-rule="evenodd" d="M94.5996 43.6V30.7C94.5996 29.8 95.2996 29.1 96.1996 29.1C97.0996 29.1 97.7996 29.8 97.7996 30.7V43.6C97.7996 44.5 97.0996 45.2 96.1996 45.2C95.2996 45.2 94.5996 44.5 94.5996 43.6Z" stroke="#E84234" stroke-miterlimit="10"/>
<path fill-rule="evenodd" clip-rule="evenodd" d="M99.2998 43.6V30.7C99.2998 29.8 99.9998 29.1 100.9 29.1C101.8 29.1 102.5 29.8 102.5 30.7V43.6C102.5 44.5 101.8 45.2 100.9 45.2C99.9998 45.2 99.2998 44.5 99.2998 43.6Z" stroke="#E84234" stroke-miterlimit="10"/>
<path fill-rule="evenodd" clip-rule="evenodd" d="M104 43.6V30.7C104 29.8 104.7 29.1 105.6 29.1C106.5 29.1 107.2 29.8 107.2 30.7V43.6C107.2 44.5 106.5 45.2 105.6 45.2C104.7 45.2 104 44.5 104 43.6Z" stroke="#E84234" stroke-miterlimit="10"/>
<path fill-rule="evenodd" clip-rule="evenodd" d="M108.7 43.6V30.7C108.7 29.8 109.4 29.1 110.3 29.1C111.2 29.1 111.9 29.8 111.9 30.7V43.6C111.9 44.5 111.2 45.2 110.3 45.2C109.4 45.2 108.7 44.5 108.7 43.6Z" stroke="#E84234" stroke-miterlimit="10"/>
<path fill-rule="evenodd" clip-rule="evenodd" d="M113.4 43.6V30.7C113.4 29.8 114.1 29.1 115 29.1C115.9 29.1 116.6 29.8 116.6 30.7V43.6C116.6 44.5 115.9 45.2 115 45.2C114.1 45.2 113.4 44.5 113.4 43.6Z" stroke="#E84234" stroke-miterlimit="10"/>
<path fill-rule="evenodd" clip-rule="evenodd" d="M71.0996 64.1999V51.2999C71.0996 50.3999 71.7996 49.7 72.6996 49.7C73.5996 49.7 74.2996 50.3999 74.2996 51.2999V64.1999C74.2996 65.0999 73.5996 65.8 72.6996 65.8C71.7996 65.8 71.0996 65.0999 71.0996 64.1999Z" stroke="#E84234" stroke-miterlimit="10"/>
<path fill-rule="evenodd" clip-rule="evenodd" d="M75.7998 64.1999V51.2999C75.7998 50.3999 76.4998 49.7 77.3998 49.7C78.2998 49.7 78.9998 50.3999 78.9998 51.2999V64.1999C78.9998 65.0999 78.2998 65.8 77.3998 65.8C76.4998 65.8 75.7998 65.0999 75.7998 64.1999Z" stroke="#E84234" stroke-miterlimit="10"/>
<path fill-rule="evenodd" clip-rule="evenodd" d="M80.5 64.1999V51.2999C80.5 50.3999 81.2 49.7 82.1 49.7C83 49.7 83.7 50.3999 83.7 51.2999V64.1999C83.7 65.0999 83 65.8 82.1 65.8C81.2 65.8 80.5 65.0999 80.5 64.1999Z" stroke="#E84234" stroke-miterlimit="10"/>
<path fill-rule="evenodd" clip-rule="evenodd" d="M85.2002 64.1999V51.2999C85.2002 50.3999 85.9002 49.7 86.8002 49.7C87.7002 49.7 88.4002 50.3999 88.4002 51.2999V64.1999C88.4002 65.0999 87.7002 65.8 86.8002 65.8C85.9002 65.8 85.2002 65.0999 85.2002 64.1999Z" stroke="#E84234" stroke-miterlimit="10"/>
<path fill-rule="evenodd" clip-rule="evenodd" d="M89.9004 64.1999V51.2999C89.9004 50.3999 90.6004 49.7 91.5004 49.7C92.4004 49.7 93.1004 50.3999 93.1004 51.2999V64.1999C93.1004 65.0999 92.4004 65.8 91.5004 65.8C90.6004 65.8 89.9004 65.0999 89.9004 64.1999Z" stroke="#E84234" stroke-miterlimit="10"/>
<path fill-rule="evenodd" clip-rule="evenodd" d="M94.5996 64.1999V51.2999C94.5996 50.3999 95.2996 49.7 96.1996 49.7C97.0996 49.7 97.7996 50.3999 97.7996 51.2999V64.1999C97.7996 65.0999 97.0996 65.8 96.1996 65.8C95.2996 65.8 94.5996 65.0999 94.5996 64.1999Z" stroke="#E84234" stroke-miterlimit="10"/>
<path fill-rule="evenodd" clip-rule="evenodd" d="M99.2998 64.1999V51.2999C99.2998 50.3999 99.9998 49.7 100.9 49.7C101.8 49.7 102.5 50.3999 102.5 51.2999V64.1999C102.5 65.0999 101.8 65.8 100.9 65.8C99.9998 65.8 99.2998 65.0999 99.2998 64.1999Z" stroke="#E84234" stroke-miterlimit="10"/>
<path fill-rule="evenodd" clip-rule="evenodd" d="M104 64.1999V51.2999C104 50.3999 104.7 49.7 105.6 49.7C106.5 49.7 107.2 50.3999 107.2 51.2999V64.1999C107.2 65.0999 106.5 65.8 105.6 65.8C104.7 65.8 104 65.0999 104 64.1999Z" stroke="#E84234" stroke-miterlimit="10"/>
<path fill-rule="evenodd" clip-rule="evenodd" d="M108.7 64.1999V51.2999C108.7 50.3999 109.4 49.7 110.3 49.7C111.2 49.7 111.9 50.3999 111.9 51.2999V64.1999C111.9 65.0999 111.2 65.8 110.3 65.8C109.4 65.8 108.7 65.0999 108.7 64.1999Z" stroke="#E84234" stroke-miterlimit="10"/>
<path fill-rule="evenodd" clip-rule="evenodd" d="M113.4 64.1999V51.2999C113.4 50.3999 114.1 49.7 115 49.7C115.9 49.7 116.6 50.3999 116.6 51.2999V64.1999C116.6 65.0999 115.9 65.8 115 65.8C114.1 65.8 113.4 65.0999 113.4 64.1999Z" stroke="#E84234" stroke-miterlimit="10"/>
<path fill-rule="evenodd" clip-rule="evenodd" d="M13.5996 23.1V10.2C13.5996 9.29998 14.2996 8.59998 15.1996 8.59998C16.0996 8.59998 16.7996 9.29998 16.7996 10.2V23.1C16.7996 24 16.0996 24.7 15.1996 24.7C14.2996 24.7 13.5996 23.9 13.5996 23.1Z" stroke="#E84234" stroke-miterlimit="10"/>
<path fill-rule="evenodd" clip-rule="evenodd" d="M13.5996 43.6V30.7C13.5996 29.8 14.2996 29.1 15.1996 29.1C16.0996 29.1 16.7996 29.8 16.7996 30.7V43.6C16.7996 44.5 16.0996 45.2 15.1996 45.2C14.2996 45.2 13.5996 44.5 13.5996 43.6Z" stroke="#E84234" stroke-miterlimit="10"/>
<path fill-rule="evenodd" clip-rule="evenodd" d="M13.5996 64.1999V51.2999C13.5996 50.3999 14.2996 49.7 15.1996 49.7C16.0996 49.7 16.7996 50.3999 16.7996 51.2999V64.1999C16.7996 65.0999 16.0996 65.8 15.1996 65.8C14.2996 65.8 13.5996 65.0999 13.5996 64.1999Z" stroke="#E84234" stroke-miterlimit="10"/>
<path d="M169.6 126.3H33V157.1H169.6V126.3Z" stroke="#E84234" stroke-miterlimit="10"/>
<path d="M68.0996 130.6H57.5996V141.1H68.0996V130.6Z" stroke="#E84234" stroke-miterlimit="10"/>
<path d="M80.2002 130.6H69.7002V141.1H80.2002V130.6Z" stroke="#E84234" stroke-miterlimit="10"/>
<path d="M92.4004 130.6H81.9004V141.1H92.4004V130.6Z" stroke="#E84234" stroke-miterlimit="10"/>
<path d="M104.6 130.6H94.0996V141.1H104.6V130.6Z" stroke="#E84234" stroke-miterlimit="10"/>
<path d="M116.7 130.6H106.2V141.1H116.7V130.6Z" stroke="#E84234" stroke-miterlimit="10"/>
<path d="M68.0996 142.8H57.5996V153.3H68.0996V142.8Z" stroke="#E84234" stroke-miterlimit="10"/>
<path d="M80.2002 142.8H69.7002V153.3H80.2002V142.8Z" stroke="#E84234" stroke-miterlimit="10"/>
<path d="M92.4004 142.8H81.9004V153.3H92.4004V142.8Z" stroke="#E84234" stroke-miterlimit="10"/>
<path d="M104.6 142.8H94.0996V153.3H104.6V142.8Z" stroke="#E84234" stroke-miterlimit="10"/>
<path d="M116.7 142.8H106.2V153.3H116.7V142.8Z" stroke="#E84234" stroke-miterlimit="10"/>
<path fill-rule="evenodd" clip-rule="evenodd" d="M49.6996 148.1C49.6996 150.8 47.4996 152.9 44.8996 152.9C42.1996 152.9 40.0996 150.7 40.0996 148.1C40.0996 145.4 42.2996 143.3 44.8996 143.3C47.5996 143.2 49.6996 145.4 49.6996 148.1Z" stroke="#E84234" stroke-miterlimit="10"/>
<path fill-rule="evenodd" clip-rule="evenodd" d="M49.6996 134.9C49.6996 137.6 47.4996 139.7 44.8996 139.7C42.1996 139.7 40.0996 137.5 40.0996 134.9C40.0996 132.2 42.2996 130.1 44.8996 130.1C47.5996 130.1 49.6996 132.2 49.6996 134.9Z" stroke="#E84234" stroke-miterlimit="10"/>
<path d="M169.6 160.8H33V191.6H169.6V160.8Z" stroke="#E84234" stroke-miterlimit="10"/>
<path d="M68.0996 165.1H57.5996V175.6H68.0996V165.1Z" stroke="#E84234" stroke-miterlimit="10"/>
<path d="M80.2002 165.1H69.7002V175.6H80.2002V165.1Z" stroke="#E84234" stroke-miterlimit="10"/>
<path d="M92.4004 165.1H81.9004V175.6H92.4004V165.1Z" stroke="#E84234" stroke-miterlimit="10"/>
<path d="M104.6 165.1H94.0996V175.6H104.6V165.1Z" stroke="#E84234" stroke-miterlimit="10"/>
<path d="M116.7 165.1H106.2V175.6H116.7V165.1Z" stroke="#E84234" stroke-miterlimit="10"/>
<path d="M68.0996 177.3H57.5996V187.8H68.0996V177.3Z" stroke="#E84234" stroke-miterlimit="10"/>
<path d="M80.2002 177.3H69.7002V187.8H80.2002V177.3Z" stroke="#E84234" stroke-miterlimit="10"/>
<path d="M92.4004 177.3H81.9004V187.8H92.4004V177.3Z" stroke="#E84234" stroke-miterlimit="10"/>
<path d="M104.6 177.3H94.0996V187.8H104.6V177.3Z" stroke="#E84234" stroke-miterlimit="10"/>
<path d="M116.7 177.3H106.2V187.8H116.7V177.3Z" stroke="#E84234" stroke-miterlimit="10"/>
<path fill-rule="evenodd" clip-rule="evenodd" d="M49.6996 182.6C49.6996 185.3 47.4996 187.4 44.8996 187.4C42.1996 187.4 40.0996 185.2 40.0996 182.6C40.0996 179.9 42.2996 177.8 44.8996 177.8C47.5996 177.7 49.6996 179.9 49.6996 182.6Z" stroke="#E84234" stroke-miterlimit="10"/>
<path fill-rule="evenodd" clip-rule="evenodd" d="M49.6996 169.4C49.6996 172.1 47.4996 174.3 44.8996 174.3C42.1996 174.3 40.0996 172.1 40.0996 169.4C40.0996 166.7 42.2996 164.6 44.8996 164.6C47.5996 164.6 49.6996 166.7 49.6996 169.4Z" stroke="#E84234" stroke-miterlimit="10"/>
<path d="M169.6 195.3H33V226.1H169.6V195.3Z" stroke="#E84234" stroke-miterlimit="10"/>
<path d="M68.0996 199.6H57.5996V210.1H68.0996V199.6Z" stroke="#E84234" stroke-miterlimit="10"/>
<path d="M80.2002 199.6H69.7002V210.1H80.2002V199.6Z" stroke="#E84234" stroke-miterlimit="10"/>
<path d="M92.4004 199.6H81.9004V210.1H92.4004V199.6Z" stroke="#E84234" stroke-miterlimit="10"/>
<path d="M104.6 199.6H94.0996V210.1H104.6V199.6Z" stroke="#E84234" stroke-miterlimit="10"/>
<path d="M116.7 199.6H106.2V210.1H116.7V199.6Z" stroke="#E84234" stroke-miterlimit="10"/>
<path d="M68.0996 211.8H57.5996V222.3H68.0996V211.8Z" stroke="#E84234" stroke-miterlimit="10"/>
<path d="M80.2002 211.8H69.7002V222.3H80.2002V211.8Z" stroke="#E84234" stroke-miterlimit="10"/>
<path d="M92.4004 211.8H81.9004V222.3H92.4004V211.8Z" stroke="#E84234" stroke-miterlimit="10"/>
<path d="M104.6 211.8H94.0996V222.3H104.6V211.8Z" stroke="#E84234" stroke-miterlimit="10"/>
<path d="M116.7 211.8H106.2V222.3H116.7V211.8Z" stroke="#E84234" stroke-miterlimit="10"/>
<path fill-rule="evenodd" clip-rule="evenodd" d="M49.6996 217.1C49.6996 219.8 47.4996 221.9 44.8996 221.9C42.1996 221.9 40.0996 219.7 40.0996 217.1C40.0996 214.4 42.2996 212.3 44.8996 212.3C47.5996 212.2 49.6996 214.4 49.6996 217.1Z" stroke="#E84234" stroke-miterlimit="10"/>
<path fill-rule="evenodd" clip-rule="evenodd" d="M49.6996 203.9C49.6996 206.6 47.4996 208.7 44.8996 208.7C42.1996 208.7 40.0996 206.5 40.0996 203.9C40.0996 201.2 42.2996 199.1 44.8996 199.1C47.5996 199.1 49.6996 201.2 49.6996 203.9Z" stroke="#E84234" stroke-miterlimit="10"/>
<path d="M169.6 229.8H33V260.6H169.6V229.8Z" stroke="#E84234" stroke-miterlimit="10"/>
<path d="M68.0996 234.1H57.5996V244.6H68.0996V234.1Z" stroke="#E84234" stroke-miterlimit="10"/>
<path d="M80.2002 234.1H69.7002V244.6H80.2002V234.1Z" stroke="#E84234" stroke-miterlimit="10"/>
<path d="M92.4004 234.1H81.9004V244.6H92.4004V234.1Z" stroke="#E84234" stroke-miterlimit="10"/>
<path d="M104.6 234.1H94.0996V244.6H104.6V234.1Z" stroke="#E84234" stroke-miterlimit="10"/>
<path d="M116.7 234.1H106.2V244.6H116.7V234.1Z" stroke="#E84234" stroke-miterlimit="10"/>
<path d="M68.0996 246.3H57.5996V256.8H68.0996V246.3Z" stroke="#E84234" stroke-miterlimit="10"/>
<path d="M80.2002 246.3H69.7002V256.8H80.2002V246.3Z" stroke="#E84234" stroke-miterlimit="10"/>
<path d="M92.4004 246.3H81.9004V256.8H92.4004V246.3Z" stroke="#E84234" stroke-miterlimit="10"/>
<path d="M104.6 246.3H94.0996V256.8H104.6V246.3Z" stroke="#E84234" stroke-miterlimit="10"/>
<path d="M116.7 246.3H106.2V256.8H116.7V246.3Z" stroke="#E84234" stroke-miterlimit="10"/>
<path fill-rule="evenodd" clip-rule="evenodd" d="M49.6996 251.5C49.6996 254.2 47.4996 256.4 44.8996 256.4C42.1996 256.4 40.0996 254.2 40.0996 251.5C40.0996 248.8 42.2996 246.7 44.8996 246.7C47.5996 246.7 49.6996 248.9 49.6996 251.5Z" stroke="#E84234" stroke-miterlimit="10"/>
<path fill-rule="evenodd" clip-rule="evenodd" d="M49.6996 238.4C49.6996 241.1 47.4996 243.2 44.8996 243.2C42.1996 243.2 40.0996 241 40.0996 238.4C40.0996 235.7 42.2996 233.6 44.8996 233.6C47.5996 233.6 49.6996 235.7 49.6996 238.4Z" stroke="#E84234" stroke-miterlimit="10"/>
<path d="M161.8 130.6H123.3V153.3H161.8V130.6Z" stroke="#E84234" stroke-miterlimit="10"/>
<path d="M161.8 164.8H123.3V187.5H161.8V164.8Z" stroke="#E84234" stroke-miterlimit="10"/>
<path d="M161.8 199.3H123.3V222H161.8V199.3Z" stroke="#E84234" stroke-miterlimit="10"/>
<path d="M161.8 233.8H123.3V256.5H161.8V233.8Z" stroke="#E84234" stroke-miterlimit="10"/>
<path d="M169.6 264.3H33V295.1H169.6V264.3Z" stroke="#E84234" stroke-miterlimit="10"/>
<path d="M68.0996 268.7H57.5996V279.2H68.0996V268.7Z" stroke="#E84234" stroke-miterlimit="10"/>
<path d="M80.2002 268.7H69.7002V279.2H80.2002V268.7Z" stroke="#E84234" stroke-miterlimit="10"/>
<path d="M92.4004 268.7H81.9004V279.2H92.4004V268.7Z" stroke="#E84234" stroke-miterlimit="10"/>
<path d="M104.6 268.7H94.0996V279.2H104.6V268.7Z" stroke="#E84234" stroke-miterlimit="10"/>
<path d="M116.7 268.7H106.2V279.2H116.7V268.7Z" stroke="#E84234" stroke-miterlimit="10"/>
<path d="M68.0996 280.9H57.5996V291.4H68.0996V280.9Z" stroke="#E84234" stroke-miterlimit="10"/>
<path d="M80.2002 280.9H69.7002V291.4H80.2002V280.9Z" stroke="#E84234" stroke-miterlimit="10"/>
<path d="M92.4004 280.9H81.9004V291.4H92.4004V280.9Z" stroke="#E84234" stroke-miterlimit="10"/>
<path d="M104.6 280.9H94.0996V291.4H104.6V280.9Z" stroke="#E84234" stroke-miterlimit="10"/>
<path d="M116.7 280.9H106.2V291.4H116.7V280.9Z" stroke="#E84234" stroke-miterlimit="10"/>
<path fill-rule="evenodd" clip-rule="evenodd" d="M49.6996 286.1C49.6996 288.8 47.4996 290.9 44.8996 290.9C42.1996 290.9 40.0996 288.7 40.0996 286.1C40.0996 283.4 42.2996 281.3 44.8996 281.3C47.5996 281.3 49.6996 283.5 49.6996 286.1Z" stroke="#E84234" stroke-miterlimit="10"/>
<path fill-rule="evenodd" clip-rule="evenodd" d="M49.6996 273C49.6996 275.7 47.4996 277.8 44.8996 277.8C42.1996 277.8 40.0996 275.6 40.0996 273C40.0996 270.3 42.2996 268.2 44.8996 268.2C47.5996 268.2 49.6996 270.3 49.6996 273Z" stroke="#E84234" stroke-miterlimit="10"/>
<path d="M169.6 298.8H33V329.6H169.6V298.8Z" stroke="#E84234" stroke-miterlimit="10"/>
<path d="M68.0996 303.2H57.5996V313.7H68.0996V303.2Z" stroke="#E84234" stroke-miterlimit="10"/>
<path d="M80.2002 303.2H69.7002V313.7H80.2002V303.2Z" stroke="#E84234" stroke-miterlimit="10"/>
<path d="M92.4004 303.2H81.9004V313.7H92.4004V303.2Z" stroke="#E84234" stroke-miterlimit="10"/>
<path d="M104.6 303.2H94.0996V313.7H104.6V303.2Z" stroke="#E84234" stroke-miterlimit="10"/>
<path d="M116.7 303.2H106.2V313.7H116.7V303.2Z" stroke="#E84234" stroke-miterlimit="10"/>
<path d="M68.0996 315.4H57.5996V325.9H68.0996V315.4Z" stroke="#E84234" stroke-miterlimit="10"/>
<path d="M80.2002 315.4H69.7002V325.9H80.2002V315.4Z" stroke="#E84234" stroke-miterlimit="10"/>
<path d="M92.4004 315.4H81.9004V325.9H92.4004V315.4Z" stroke="#E84234" stroke-miterlimit="10"/>
<path d="M104.6 315.4H94.0996V325.9H104.6V315.4Z" stroke="#E84234" stroke-miterlimit="10"/>
<path d="M116.7 315.4H106.2V325.9H116.7V315.4Z" stroke="#E84234" stroke-miterlimit="10"/>
<path fill-rule="evenodd" clip-rule="evenodd" d="M49.6996 320.6C49.6996 323.3 47.4996 325.4 44.8996 325.4C42.1996 325.4 40.0996 323.2 40.0996 320.6C40.0996 317.9 42.2996 315.8 44.8996 315.8C47.5996 315.8 49.6996 318 49.6996 320.6Z" stroke="#E84234" stroke-miterlimit="10"/>
<path fill-rule="evenodd" clip-rule="evenodd" d="M49.6996 307.5C49.6996 310.2 47.4996 312.3 44.8996 312.3C42.1996 312.3 40.0996 310.1 40.0996 307.5C40.0996 304.8 42.2996 302.7 44.8996 302.7C47.5996 302.7 49.6996 304.8 49.6996 307.5Z" stroke="#E84234" stroke-miterlimit="10"/>
<path d="M169.6 333.3H33V364.1H169.6V333.3Z" stroke="#E84234" stroke-miterlimit="10"/>
<path d="M68.0996 337.7H57.5996V348.2H68.0996V337.7Z" stroke="#E84234" stroke-miterlimit="10"/>
<path d="M80.2002 337.7H69.7002V348.2H80.2002V337.7Z" stroke="#E84234" stroke-miterlimit="10"/>
<path d="M92.4004 337.7H81.9004V348.2H92.4004V337.7Z" stroke="#E84234" stroke-miterlimit="10"/>
<path d="M104.6 337.7H94.0996V348.2H104.6V337.7Z" stroke="#E84234" stroke-miterlimit="10"/>
<path d="M116.7 337.7H106.2V348.2H116.7V337.7Z" stroke="#E84234" stroke-miterlimit="10"/>
<path d="M68.0996 349.9H57.5996V360.4H68.0996V349.9Z" stroke="#E84234" stroke-miterlimit="10"/>
<path d="M80.2002 349.9H69.7002V360.4H80.2002V349.9Z" stroke="#E84234" stroke-miterlimit="10"/>
<path d="M92.4004 349.9H81.9004V360.4H92.4004V349.9Z" stroke="#E84234" stroke-miterlimit="10"/>
<path d="M104.6 349.9H94.0996V360.4H104.6V349.9Z" stroke="#E84234" stroke-miterlimit="10"/>
<path d="M116.7 349.9H106.2V360.4H116.7V349.9Z" stroke="#E84234" stroke-miterlimit="10"/>
<path fill-rule="evenodd" clip-rule="evenodd" d="M49.6996 355.1C49.6996 357.8 47.4996 359.9 44.8996 359.9C42.1996 359.9 40.0996 357.7 40.0996 355.1C40.0996 352.4 42.2996 350.3 44.8996 350.3C47.5996 350.3 49.6996 352.5 49.6996 355.1Z" stroke="#E84234" stroke-miterlimit="10"/>
<path fill-rule="evenodd" clip-rule="evenodd" d="M49.6996 342C49.6996 344.7 47.4996 346.8 44.8996 346.8C42.1996 346.8 40.0996 344.6 40.0996 342C40.0996 339.3 42.2996 337.2 44.8996 337.2C47.5996 337.2 49.6996 339.3 49.6996 342Z" stroke="#E84234" stroke-miterlimit="10"/>
<path d="M169.6 367.8H33V398.6H169.6V367.8Z" stroke="#E84234" stroke-miterlimit="10"/>
<path d="M68.0996 372.2H57.5996V382.7H68.0996V372.2Z" stroke="#E84234" stroke-miterlimit="10"/>
<path d="M80.2002 372.2H69.7002V382.7H80.2002V372.2Z" stroke="#E84234" stroke-miterlimit="10"/>
<path d="M92.4004 372.2H81.9004V382.7H92.4004V372.2Z" stroke="#E84234" stroke-miterlimit="10"/>
<path d="M104.6 372.2H94.0996V382.7H104.6V372.2Z" stroke="#E84234" stroke-miterlimit="10"/>
<path d="M116.7 372.2H106.2V382.7H116.7V372.2Z" stroke="#E84234" stroke-miterlimit="10"/>
<path d="M68.0996 384.4H57.5996V394.9H68.0996V384.4Z" stroke="#E84234" stroke-miterlimit="10"/>
<path d="M80.2002 384.4H69.7002V394.9H80.2002V384.4Z" stroke="#E84234" stroke-miterlimit="10"/>
<path d="M92.4004 384.4H81.9004V394.9H92.4004V384.4Z" stroke="#E84234" stroke-miterlimit="10"/>
<path d="M104.6 384.4H94.0996V394.9H104.6V384.4Z" stroke="#E84234" stroke-miterlimit="10"/>
<path d="M116.7 384.4H106.2V394.9H116.7V384.4Z" stroke="#E84234" stroke-miterlimit="10"/>
<path fill-rule="evenodd" clip-rule="evenodd" d="M49.6996 389.6C49.6996 392.3 47.4996 394.4 44.8996 394.4C42.1996 394.4 40.0996 392.2 40.0996 389.6C40.0996 386.9 42.2996 384.8 44.8996 384.8C47.5996 384.8 49.6996 387 49.6996 389.6Z" stroke="#E84234" stroke-miterlimit="10"/>
<path fill-rule="evenodd" clip-rule="evenodd" d="M49.6996 376.5C49.6996 379.2 47.4996 381.3 44.8996 381.3C42.1996 381.3 40.0996 379.1 40.0996 376.5C40.0996 373.8 42.2996 371.7 44.8996 371.7C47.5996 371.6 49.6996 373.8 49.6996 376.5Z" stroke="#E84234" stroke-miterlimit="10"/>
<path d="M161.8 268.7H123.3V291.4H161.8V268.7Z" stroke="#E84234" stroke-miterlimit="10"/>
<path d="M161.8 302.9H123.3V325.6H161.8V302.9Z" stroke="#E84234" stroke-miterlimit="10"/>
<path d="M161.8 337.4H123.3V360.1H161.8V337.4Z" stroke="#E84234" stroke-miterlimit="10"/>
<path d="M161.8 371.9H123.3V394.6H161.8V371.9Z" stroke="#E84234" stroke-miterlimit="10"/>
<path d="M169.6 402H33V432.8H169.6V402Z" stroke="#E84234" stroke-miterlimit="10"/>
<path d="M68.0996 406.3H57.5996V416.8H68.0996V406.3Z" stroke="#E84234" stroke-miterlimit="10"/>
<path d="M80.2002 406.3H69.7002V416.8H80.2002V406.3Z" stroke="#E84234" stroke-miterlimit="10"/>
<path d="M92.4004 406.3H81.9004V416.8H92.4004V406.3Z" stroke="#E84234" stroke-miterlimit="10"/>
<path d="M104.6 406.3H94.0996V416.8H104.6V406.3Z" stroke="#E84234" stroke-miterlimit="10"/>
<path d="M116.7 406.3H106.2V416.8H116.7V406.3Z" stroke="#E84234" stroke-miterlimit="10"/>
<path d="M68.0996 418.6H57.5996V429.1H68.0996V418.6Z" stroke="#E84234" stroke-miterlimit="10"/>
<path d="M80.2002 418.6H69.7002V429.1H80.2002V418.6Z" stroke="#E84234" stroke-miterlimit="10"/>
<path d="M92.4004 418.6H81.9004V429.1H92.4004V418.6Z" stroke="#E84234" stroke-miterlimit="10"/>
<path d="M104.6 418.6H94.0996V429.1H104.6V418.6Z" stroke="#E84234" stroke-miterlimit="10"/>
<path d="M116.7 418.6H106.2V429.1H116.7V418.6Z" stroke="#E84234" stroke-miterlimit="10"/>
<path fill-rule="evenodd" clip-rule="evenodd" d="M49.6996 423.8C49.6996 426.5 47.4996 428.7 44.8996 428.7C42.1996 428.7 40.0996 426.5 40.0996 423.8C40.0996 421.1 42.2996 419 44.8996 419C47.5996 419 49.6996 421.1 49.6996 423.8Z" stroke="#E84234" stroke-miterlimit="10"/>
<path fill-rule="evenodd" clip-rule="evenodd" d="M49.6996 410.7C49.6996 413.4 47.4996 415.5 44.8996 415.5C42.1996 415.5 40.0996 413.3 40.0996 410.7C40.0996 408 42.2996 405.9 44.8996 405.9C47.5996 405.8 49.6996 408 49.6996 410.7Z" stroke="#E84234" stroke-miterlimit="10"/>
<path d="M161.8 406.1H123.3V428.8H161.8V406.1Z" stroke="#E84234" stroke-miterlimit="10"/>
<path d="M169.6 437.8H33V453.2H169.6V437.8Z" stroke="#E84234" stroke-miterlimit="10"/>
</g>
<defs>
<clipPath id="clip0_177_1234">
<rect width="247.9" height="493.9" fill="white"/>
</clipPath>
</defs>
</svg>
