<svg width="50" height="50" viewBox="0 0 50 50" fill="none" xmlns="http://www.w3.org/2000/svg">
<g clip-path="url(#clip0_188_1077)">
<circle cx="25" cy="25" r="25" fill="#2DA4DC"/>
<path fill-rule="evenodd" clip-rule="evenodd" d="M11.3031 24.7292C18.5884 21.5654 23.4393 19.4622 25.8737 18.4422C32.805 15.5487 34.2626 15.0489 35.1988 15.0286C35.4068 15.0286 35.8648 15.0704 36.1769 15.3203C36.4268 15.5284 36.4889 15.7986 36.5308 16.0079C36.5726 16.2159 36.6145 16.6536 36.5726 16.9859C36.1984 20.9413 34.5747 30.5366 33.7412 34.9499C33.3873 36.8236 32.701 37.4477 32.0338 37.5099C30.5762 37.6342 29.4738 36.5521 28.0784 35.6362C25.8724 34.2002 24.6432 33.3046 22.4993 31.8889C20.0218 30.2652 21.6253 29.3696 23.041 27.9133C23.4152 27.539 29.8062 21.71 29.9305 21.1899C29.9508 21.1278 29.9508 20.8779 29.8062 20.7523C29.6603 20.628 29.4523 20.6686 29.2861 20.7104C29.0565 20.7523 25.5603 23.0839 18.7533 27.6836C17.7537 28.3712 16.8593 28.7036 16.0475 28.6833C15.1519 28.663 13.4457 28.1835 12.1543 27.7674C10.5927 27.2676 9.34442 26.9974 9.44844 26.1233C9.51314 25.6666 10.1373 25.2087 11.3031 24.7292Z" fill="white"/>
</g>
<defs>
<clipPath id="clip0_188_1077">
<rect width="50" height="50" rx="5" fill="white"/>
</clipPath>
</defs>
</svg>
