<svg width="75" height="75" viewBox="0 0 75 75" fill="none" xmlns="http://www.w3.org/2000/svg">
<path d="M46.9649 63.1855H28.0391V74.0003H46.9649V63.1855Z" stroke="#E84234" stroke-miterlimit="10" stroke-linecap="round" stroke-linejoin="round"/>
<path d="M28.0369 65.8888H1V71.2962H28.0369V65.8888Z" stroke="#E84234" stroke-miterlimit="10" stroke-linecap="round" stroke-linejoin="round"/>
<path d="M73.9998 65.8887H46.9629V71.2961H73.9998V65.8887Z" stroke="#E84234" stroke-miterlimit="10" stroke-linecap="round" stroke-linejoin="round"/>
<path d="M40.2043 52.3701H34.7969V63.1849H40.2043V52.3701Z" stroke="#E84234" stroke-miterlimit="10" stroke-linecap="round" stroke-linejoin="round"/>
<path d="M73.9997 30.7412H1V52.3708H73.9997V30.7412Z" stroke="#E84234" stroke-miterlimit="10" stroke-linecap="round" stroke-linejoin="round"/>
<path d="M68.5941 36.1475H57.7793V46.9622H68.5941V36.1475Z" stroke="#E84234" stroke-miterlimit="10" stroke-linecap="round" stroke-linejoin="round"/>
<path d="M9.11133 36.1475H49.6667" stroke="#E84234" stroke-miterlimit="10" stroke-linecap="round" stroke-linejoin="round"/>
<path d="M9.11133 41.5557H49.6667" stroke="#E84234" stroke-miterlimit="10" stroke-linecap="round" stroke-linejoin="round"/>
<path d="M9.11133 46.9639H49.6667" stroke="#E84234" stroke-miterlimit="10" stroke-linecap="round" stroke-linejoin="round"/>
<path d="M73.9997 9.11133H1V30.7409H73.9997V9.11133Z" stroke="#E84234" stroke-miterlimit="10" stroke-linecap="round" stroke-linejoin="round"/>
<path d="M68.5941 14.5195H57.7793V25.3343H68.5941V14.5195Z" stroke="#E84234" stroke-miterlimit="10" stroke-linecap="round" stroke-linejoin="round"/>
<path d="M9.11133 14.5195H49.6667" stroke="#E84234" stroke-miterlimit="10" stroke-linecap="round" stroke-linejoin="round"/>
<path d="M9.11133 19.9258H49.6667" stroke="#E84234" stroke-miterlimit="10" stroke-linecap="round" stroke-linejoin="round"/>
<path d="M9.11133 25.334H49.6667" stroke="#E84234" stroke-miterlimit="10" stroke-linecap="round" stroke-linejoin="round"/>
<path d="M1 9.11108L6.40738 1H68.5923L73.9997 9.11108" stroke="#E84234" stroke-miterlimit="10" stroke-linecap="round" stroke-linejoin="round"/>
</svg>
