<svg width="263" height="37" viewBox="0 0 263 37" fill="none" xmlns="http://www.w3.org/2000/svg">
<path d="M62.5241 28.4035H57.5035V17.5952C57.5035 16.2703 57.2943 15.2941 56.8062 14.5968C56.3878 13.8995 55.6905 13.6206 54.7143 13.6206C53.3894 13.6206 52.4829 14.1087 51.925 15.0152C51.3672 15.9914 51.0185 17.5255 51.0185 19.6871V28.4035H45.9979V9.92483H49.8331L50.5304 12.2957H50.8094C51.2975 11.4589 51.9948 10.7616 52.971 10.2735C53.8775 9.78536 54.9932 9.57617 56.1786 9.57617C58.9678 9.57617 60.8506 10.4827 61.8268 12.2957H62.2452C62.7333 11.4589 63.5004 10.7616 64.4069 10.2735C65.3831 9.78536 66.429 9.57617 67.6842 9.57617C69.7761 9.57617 71.3799 10.134 72.4259 11.18C73.4719 12.2259 74.0297 13.9692 74.0297 16.3401V28.4035H68.9394V17.5952C68.9394 16.2703 68.7302 15.2941 68.242 14.5968C67.8237 13.8995 67.1264 13.6206 66.1501 13.6206C64.895 13.6206 63.9885 14.0389 63.3609 14.9454C62.7333 15.8519 62.4544 17.2466 62.4544 19.1293V28.4035H62.5241Z" fill="white"/>
<path d="M87.6269 28.7522C84.6285 28.7522 82.3274 27.9155 80.6539 26.3117C78.9803 24.6381 78.1436 22.337 78.1436 19.3386C78.1436 16.2704 78.9106 13.8298 80.4447 12.1563C81.9787 10.4828 84.1404 9.646 86.8599 9.646C89.4399 9.646 91.5319 10.413 92.9962 11.8774C94.4606 13.3417 95.1579 15.4337 95.1579 18.0137V20.4543H83.2339C83.3036 21.9186 83.722 23.0343 84.4891 23.8013C85.2561 24.6381 86.3718 24.9868 87.8361 24.9868C88.9518 24.9868 89.9978 24.8473 90.974 24.6381C91.9502 24.4289 92.9962 24.0105 94.1119 23.5224V27.4273C93.2054 27.8457 92.2989 28.1944 91.2529 28.4036C90.2767 28.6128 89.0216 28.7522 87.6269 28.7522ZM86.8599 13.1325C85.8139 13.1325 84.9772 13.4812 84.3496 14.1785C83.722 14.8758 83.3734 15.852 83.3036 17.0375H90.4162C90.4162 15.7823 90.0675 14.8061 89.4399 14.1785C88.8124 13.4812 87.9756 13.1325 86.8599 13.1325Z" fill="white"/>
<path d="M109.592 9.57617C110.29 9.57617 110.847 9.64591 111.266 9.71564L110.917 14.4573C110.499 14.3179 110.011 14.3179 109.453 14.3179C107.849 14.3179 106.594 14.7362 105.687 15.573C104.781 16.4098 104.362 17.5255 104.362 19.0596V28.4732H99.3419V9.92483H103.177L103.944 13.0627H104.223C104.781 12.0167 105.548 11.18 106.524 10.5524C107.361 9.8551 108.477 9.57617 109.592 9.57617Z" fill="white"/>
<path d="M119.774 28.4035H114.753V2.67285H119.774V28.4035Z" fill="white"/>
<path d="M124.863 5.11343C124.863 3.43989 125.77 2.67285 127.583 2.67285C129.396 2.67285 130.302 3.50962 130.302 5.11343C130.302 5.88047 130.093 6.50805 129.605 6.92643C129.117 7.34482 128.489 7.554 127.513 7.554C125.77 7.62373 124.863 6.78697 124.863 5.11343ZM130.093 28.4035H125.073V9.92485H130.093V28.4035Z" fill="white"/>
<path d="M152.267 19.1293C152.267 22.1277 151.5 24.4986 149.897 26.1721C148.293 27.8456 146.131 28.7521 143.272 28.7521C141.529 28.7521 139.925 28.3338 138.6 27.5667C137.275 26.7997 136.229 25.684 135.462 24.2196C134.765 22.7553 134.347 21.0818 134.347 19.1293C134.347 16.1309 135.114 13.76 136.718 12.0865C138.321 10.4129 140.483 9.57617 143.342 9.57617C145.085 9.57617 146.689 9.99456 148.014 10.7616C149.339 11.5286 150.385 12.6443 151.152 14.1087C151.919 15.5033 152.267 17.1768 152.267 19.1293ZM139.437 19.1293C139.437 20.9423 139.716 22.3369 140.344 23.3131C140.971 24.2196 141.947 24.7078 143.272 24.7078C144.597 24.7078 145.573 24.2196 146.201 23.3131C146.759 22.4066 147.107 21.012 147.107 19.1293C147.107 17.3163 146.828 15.9217 146.201 15.0152C145.573 14.1087 144.597 13.6206 143.272 13.6206C141.947 13.6206 140.971 14.1087 140.344 15.0152C139.786 15.9217 139.437 17.2466 139.437 19.1293Z" fill="white"/>
<path d="M173.535 28.4035H168.515V17.5952C168.515 16.2703 168.306 15.2941 167.818 14.5968C167.329 13.8995 166.562 13.6206 165.516 13.6206C164.122 13.6206 163.076 14.1087 162.448 15.0152C161.821 15.9914 161.472 17.5255 161.472 19.6871V28.4035H156.451V9.92483H160.287L160.984 12.2957H161.263C161.821 11.3892 162.588 10.7616 163.564 10.2735C164.54 9.78536 165.656 9.57617 166.911 9.57617C169.073 9.57617 170.676 10.134 171.792 11.3194C172.908 12.5049 173.466 14.1784 173.466 16.3401V28.4035H173.535Z" fill="white"/>
<path d="M189.295 28.7522C186.645 28.7522 184.623 27.9155 183.228 26.3117C181.764 24.7079 181.067 22.4067 181.067 19.478C181.067 16.4796 181.764 14.1088 183.228 12.4352C184.693 10.7617 186.784 9.92493 189.504 9.92493C190.41 9.92493 191.247 9.99466 192.084 10.2039C192.921 10.413 193.618 10.6222 194.106 10.8314L193.269 13.1325C192.642 12.9233 192.014 12.7142 191.317 12.505C190.62 12.3655 189.992 12.2958 189.434 12.2958C185.739 12.2958 183.926 14.6666 183.926 19.3386C183.926 21.57 184.344 23.2435 185.25 24.4987C186.157 25.6841 187.482 26.3117 189.225 26.3117C190.759 26.3117 192.293 25.963 193.897 25.3354V27.776C192.712 28.4036 191.178 28.7522 189.295 28.7522Z" fill="white"/>
<path d="M201.01 28.4036H198.29V2.67297H201.01V28.4036Z" fill="white"/>
<path d="M222.487 19.3384C222.487 22.2671 221.72 24.5682 220.255 26.2418C218.791 27.9153 216.699 28.7521 214.049 28.7521C212.445 28.7521 210.981 28.4034 209.726 27.6364C208.471 26.8694 207.494 25.7537 206.797 24.3591C206.1 22.9644 205.751 21.2909 205.751 19.3384C205.751 16.4097 206.518 14.1086 207.983 12.4351C209.447 10.7615 211.539 9.99451 214.119 9.99451C216.629 9.99451 218.651 10.8313 220.186 12.5048C221.72 14.1784 222.487 16.4097 222.487 19.3384ZM208.68 19.3384C208.68 21.6395 209.168 23.4525 210.075 24.638C210.981 25.8234 212.376 26.451 214.189 26.451C216.002 26.451 217.327 25.8234 218.303 24.638C219.209 23.4525 219.697 21.6395 219.697 19.3384C219.697 17.0373 219.209 15.294 218.303 14.1086C217.396 12.9232 216.002 12.2956 214.189 12.2956C212.376 12.2956 211.051 12.8535 210.144 14.0389C209.098 15.2243 208.68 16.9676 208.68 19.3384Z" fill="white"/>
<path d="M229.948 10.2736V22.0581C229.948 23.5224 230.297 24.6381 230.925 25.3354C231.622 26.0327 232.668 26.4511 234.062 26.4511C235.945 26.4511 237.34 25.963 238.246 24.9171C239.153 23.8711 239.571 22.1976 239.571 19.8267V10.2736H242.291V28.4036H239.99L239.571 25.963H239.432C238.874 26.8695 238.107 27.5668 237.061 27.9852C236.085 28.4733 234.899 28.6825 233.644 28.6825C231.413 28.6825 229.809 28.1247 228.693 27.0787C227.578 26.0327 227.02 24.3592 227.02 22.0581V10.2039H229.948V10.2736Z" fill="white"/>
<path d="M260.49 25.963H260.35C259.095 27.776 257.212 28.7523 254.632 28.7523C252.261 28.7523 250.448 27.9155 249.124 26.3117C247.799 24.7079 247.171 22.4068 247.171 19.4084C247.171 16.4099 247.799 14.1088 249.124 12.4353C250.448 10.7617 252.261 9.92497 254.632 9.92497C257.073 9.92497 258.956 10.8315 260.28 12.5747H260.49L260.35 11.2499L260.28 9.9947V2.67297H263V28.4036H260.769L260.49 25.963ZM254.981 26.4512C256.864 26.4512 258.189 25.963 259.025 24.9171C259.862 23.8711 260.28 22.2673 260.28 19.9662V19.4084C260.28 16.8283 259.862 15.0153 259.025 13.8996C258.189 12.7839 256.794 12.2261 254.911 12.2261C253.307 12.2261 252.052 12.8537 251.215 14.1088C250.379 15.364 249.96 17.1072 249.96 19.4084C249.96 21.7095 250.379 23.4527 251.215 24.6382C252.122 25.8236 253.377 26.4512 254.981 26.4512Z" fill="white"/>
<path d="M33.4462 22.4985C37.0025 26.0548 37.4209 31.3543 34.4225 34.4225C31.4241 37.4209 26.0548 37.0025 22.4985 33.4463C17.7568 28.7046 18.1752 19.5001 18.2449 18.245C19.5001 18.1055 28.7046 17.7568 33.4462 22.4985Z" fill="white"/>
<path d="M13.9216 2.9739C18.6633 7.7156 18.2449 16.9201 18.1752 18.1752C16.9201 18.2449 7.7156 18.6633 2.9739 13.9216C-0.582367 10.3654 -1.00075 5.06582 1.99767 1.99767C5.06583 -1.00075 10.3654 -0.582367 13.9216 2.9739Z" fill="white"/>
<path d="M22.4985 2.9739C26.0548 -0.582367 31.3543 -1.00075 34.4225 1.99767C37.4209 4.99609 37.0025 10.3654 33.4462 13.9216C28.7046 18.6633 19.5001 18.2449 18.2449 18.1752C18.1752 16.9201 17.7568 7.64586 22.4985 2.9739Z" fill="white"/>
<path d="M2.9739 22.4985C7.7156 17.7568 16.9201 18.1752 18.1752 18.2449C18.2449 19.5001 18.6633 28.7045 13.9216 33.4462C10.3654 37.0025 5.06583 37.4209 1.99767 34.4225C-1.00075 31.3543 -0.582367 25.985 2.9739 22.4985Z" fill="white"/>
</svg>
