<svg width="213" height="570" viewBox="0 0 213 570" fill="none" xmlns="http://www.w3.org/2000/svg">
<g clip-path="url(#clip0_177_928)">
<path d="M211.7 0.5H0.5V569.1H211.7V0.5Z" stroke="#E84234" stroke-miterlimit="10"/>
<path d="M193.6 8.7H18.5V35.5H193.6V8.7Z" stroke="#E84234" stroke-miterlimit="10"/>
<path d="M193.6 51H18.5V549.6H193.6V51Z" stroke="#E84234" stroke-miterlimit="10"/>
<path d="M211.7 35.5H0.5V40.7H211.7V35.5Z" stroke="#E84234" stroke-miterlimit="10"/>
<path d="M186.7 56.4H25.5V83.2H186.7V56.4Z" stroke="#E84234" stroke-miterlimit="10"/>
<path d="M178.5 62.3H142.4V77.2H178.5V62.3Z" stroke="#E84234" stroke-miterlimit="10"/>
<path d="M137.7 62.3H114V77.2H137.7V62.3Z" stroke="#E84234" stroke-miterlimit="10"/>
<path d="M109.4 62.3H98.3V77.2H109.4V62.3Z" stroke="#E84234" stroke-miterlimit="10"/>
<path d="M86.0996 68.3001C87.7565 68.3001 89.0996 66.9569 89.0996 65.3001C89.0996 63.6432 87.7565 62.3 86.0996 62.3C84.4428 62.3 83.0996 63.6432 83.0996 65.3001C83.0996 66.9569 84.4428 68.3001 86.0996 68.3001Z" stroke="#E84234" stroke-miterlimit="10"/>
<path fill-rule="evenodd" clip-rule="evenodd" d="M86.0996 77.3C87.6996 77.3 89.0996 76 89.0996 74.3C89.0996 72.7 87.7996 71.3 86.0996 71.3C84.4996 71.3 83.0996 72.6 83.0996 74.3C83.0996 75.9 84.3996 77.3 86.0996 77.3Z" stroke="#E84234" stroke-miterlimit="10"/>
<path fill-rule="evenodd" clip-rule="evenodd" d="M75.9004 68.3001C77.5004 68.3001 78.9004 67.0001 78.9004 65.3001C78.9004 63.7001 77.6004 62.3 75.9004 62.3C74.3004 62.3 72.9004 63.6001 72.9004 65.3001C72.9004 66.9001 74.3004 68.3001 75.9004 68.3001Z" stroke="#E84234" stroke-miterlimit="10"/>
<path fill-rule="evenodd" clip-rule="evenodd" d="M75.9004 77.3C77.5004 77.3 78.9004 76 78.9004 74.3C78.9004 72.7 77.6004 71.3 75.9004 71.3C74.3004 71.3 72.9004 72.6 72.9004 74.3C72.9004 75.9 74.3004 77.3 75.9004 77.3Z" stroke="#E84234" stroke-miterlimit="10"/>
<path d="M66 62.3H63.3V77.2H66V62.3Z" stroke="#E84234" stroke-miterlimit="10"/>
<path d="M60.1004 62.3H57.4004V77.2H60.1004V62.3Z" stroke="#E84234" stroke-miterlimit="10"/>
<path d="M54.2 62.3H51.5V77.2H54.2V62.3Z" stroke="#E84234" stroke-miterlimit="10"/>
<path d="M48.2996 62.3H45.5996V77.2H48.2996V62.3Z" stroke="#E84234" stroke-miterlimit="10"/>
<path d="M42.4 62.3H39.7V77.2H42.4V62.3Z" stroke="#E84234" stroke-miterlimit="10"/>
<path d="M36.5 62.3H33.8V77.2H36.5V62.3Z" stroke="#E84234" stroke-miterlimit="10"/>
<path d="M186.7 88.8H25.5V115.6H186.7V88.8Z" stroke="#E84234" stroke-miterlimit="10"/>
<path d="M109.4 94.8H98.3V109.7H109.4V94.8Z" stroke="#E84234" stroke-miterlimit="10"/>
<path d="M86.0996 100.7C87.7565 100.7 89.0996 99.3568 89.0996 97.7C89.0996 96.0431 87.7565 94.7 86.0996 94.7C84.4428 94.7 83.0996 96.0431 83.0996 97.7C83.0996 99.3568 84.4428 100.7 86.0996 100.7Z" stroke="#E84234" stroke-miterlimit="10"/>
<path d="M86.0996 109.7C87.7565 109.7 89.0996 108.357 89.0996 106.7C89.0996 105.043 87.7565 103.7 86.0996 103.7C84.4428 103.7 83.0996 105.043 83.0996 106.7C83.0996 108.357 84.4428 109.7 86.0996 109.7Z" stroke="#E84234" stroke-miterlimit="10"/>
<path fill-rule="evenodd" clip-rule="evenodd" d="M75.9004 100.7C77.5004 100.7 78.9004 99.4 78.9004 97.7C78.9004 96 77.6004 94.7 75.9004 94.7C74.3004 94.7 72.9004 96 72.9004 97.7C72.9004 99.4 74.3004 100.7 75.9004 100.7Z" stroke="#E84234" stroke-miterlimit="10"/>
<path fill-rule="evenodd" clip-rule="evenodd" d="M75.9004 109.7C77.5004 109.7 78.9004 108.4 78.9004 106.7C78.9004 105.1 77.6004 103.7 75.9004 103.7C74.3004 103.7 72.9004 105 72.9004 106.7C72.9004 108.4 74.3004 109.7 75.9004 109.7Z" stroke="#E84234" stroke-miterlimit="10"/>
<path d="M66 94.8H63.3V109.7H66V94.8Z" stroke="#E84234" stroke-miterlimit="10"/>
<path d="M60.1004 94.8H57.4004V109.7H60.1004V94.8Z" stroke="#E84234" stroke-miterlimit="10"/>
<path d="M54.2 94.8H51.5V109.7H54.2V94.8Z" stroke="#E84234" stroke-miterlimit="10"/>
<path d="M48.2996 94.8H45.5996V109.7H48.2996V94.8Z" stroke="#E84234" stroke-miterlimit="10"/>
<path d="M42.4 94.8H39.7V109.7H42.4V94.8Z" stroke="#E84234" stroke-miterlimit="10"/>
<path d="M36.5 94.8H33.8V109.7H36.5V94.8Z" stroke="#E84234" stroke-miterlimit="10"/>
<path d="M178.4 94.8H114V97.8H178.4V94.8Z" stroke="#E84234" stroke-miterlimit="10"/>
<path d="M178.4 106.7H114V109.7H178.4V106.7Z" stroke="#E84234" stroke-miterlimit="10"/>
<path d="M178.4 102.9H114V105.9H178.4V102.9Z" stroke="#E84234" stroke-miterlimit="10"/>
<path d="M178.4 98.8H114V101.8H178.4V98.8Z" stroke="#E84234" stroke-miterlimit="10"/>
<path d="M186.7 121.3H25.5V148.1H186.7V121.3Z" stroke="#E84234" stroke-miterlimit="10"/>
<path d="M178.5 127.2H142.4V142.1H178.5V127.2Z" stroke="#E84234" stroke-miterlimit="10"/>
<path d="M137.7 127.2H114V142.1H137.7V127.2Z" stroke="#E84234" stroke-miterlimit="10"/>
<path d="M109.4 127.2H98.3V142.1H109.4V127.2Z" stroke="#E84234" stroke-miterlimit="10"/>
<path fill-rule="evenodd" clip-rule="evenodd" d="M75.9004 133.2C77.5004 133.2 78.9004 131.9 78.9004 130.2C78.9004 128.6 77.6004 127.2 75.9004 127.2C74.3004 127.2 72.9004 128.5 72.9004 130.2C72.9004 131.8 74.3004 133.2 75.9004 133.2Z" stroke="#E84234" stroke-miterlimit="10"/>
<path fill-rule="evenodd" clip-rule="evenodd" d="M75.9004 142.2C77.5004 142.2 78.9004 140.9 78.9004 139.2C78.9004 137.5 77.6004 136.2 75.9004 136.2C74.3004 136.2 72.9004 137.5 72.9004 139.2C72.9004 140.9 74.3004 142.2 75.9004 142.2Z" stroke="#E84234" stroke-miterlimit="10"/>
<path d="M86.0996 133.2C87.7565 133.2 89.0996 131.857 89.0996 130.2C89.0996 128.543 87.7565 127.2 86.0996 127.2C84.4428 127.2 83.0996 128.543 83.0996 130.2C83.0996 131.857 84.4428 133.2 86.0996 133.2Z" stroke="#E84234" stroke-miterlimit="10"/>
<path d="M86.0996 142.2C87.7565 142.2 89.0996 140.857 89.0996 139.2C89.0996 137.543 87.7565 136.2 86.0996 136.2C84.4428 136.2 83.0996 137.543 83.0996 139.2C83.0996 140.857 84.4428 142.2 86.0996 142.2Z" stroke="#E84234" stroke-miterlimit="10"/>
<path d="M66 127.2H63.3V142.1H66V127.2Z" stroke="#E84234" stroke-miterlimit="10"/>
<path d="M60.1004 127.2H57.4004V142.1H60.1004V127.2Z" stroke="#E84234" stroke-miterlimit="10"/>
<path d="M54.2 127.2H51.5V142.1H54.2V127.2Z" stroke="#E84234" stroke-miterlimit="10"/>
<path d="M48.2996 127.2H45.5996V142.1H48.2996V127.2Z" stroke="#E84234" stroke-miterlimit="10"/>
<path d="M42.4 127.2H39.7V142.1H42.4V127.2Z" stroke="#E84234" stroke-miterlimit="10"/>
<path d="M36.5 127.2H33.8V142.1H36.5V127.2Z" stroke="#E84234" stroke-miterlimit="10"/>
<path d="M186.7 153.7H25.5V180.5H186.7V153.7Z" stroke="#E84234" stroke-miterlimit="10"/>
<path d="M109.4 159.7H98.3V174.6H109.4V159.7Z" stroke="#E84234" stroke-miterlimit="10"/>
<path fill-rule="evenodd" clip-rule="evenodd" d="M75.9004 165.6C77.5004 165.6 78.9004 164.3 78.9004 162.6C78.9004 161 77.6004 159.6 75.9004 159.6C74.3004 159.6 72.9004 160.9 72.9004 162.6C72.9004 164.3 74.3004 165.6 75.9004 165.6Z" stroke="#E84234" stroke-miterlimit="10"/>
<path fill-rule="evenodd" clip-rule="evenodd" d="M75.9004 174.6C77.5004 174.6 78.9004 173.3 78.9004 171.6C78.9004 170 77.6004 168.6 75.9004 168.6C74.3004 168.6 72.9004 169.9 72.9004 171.6C72.9004 173.3 74.3004 174.6 75.9004 174.6Z" stroke="#E84234" stroke-miterlimit="10"/>
<path fill-rule="evenodd" clip-rule="evenodd" d="M86.0996 165.6C87.6996 165.6 89.0996 164.3 89.0996 162.6C89.0996 161 87.7996 159.6 86.0996 159.6C84.4996 159.6 83.0996 160.9 83.0996 162.6C83.0996 164.3 84.3996 165.6 86.0996 165.6Z" stroke="#E84234" stroke-miterlimit="10"/>
<path d="M86.0996 174.6C87.7565 174.6 89.0996 173.257 89.0996 171.6C89.0996 169.943 87.7565 168.6 86.0996 168.6C84.4428 168.6 83.0996 169.943 83.0996 171.6C83.0996 173.257 84.4428 174.6 86.0996 174.6Z" stroke="#E84234" stroke-miterlimit="10"/>
<path d="M66 159.7H63.3V174.6H66V159.7Z" stroke="#E84234" stroke-miterlimit="10"/>
<path d="M60.1004 159.7H57.4004V174.6H60.1004V159.7Z" stroke="#E84234" stroke-miterlimit="10"/>
<path d="M54.2 159.7H51.5V174.6H54.2V159.7Z" stroke="#E84234" stroke-miterlimit="10"/>
<path d="M48.2996 159.7H45.5996V174.6H48.2996V159.7Z" stroke="#E84234" stroke-miterlimit="10"/>
<path d="M42.4 159.7H39.7V174.6H42.4V159.7Z" stroke="#E84234" stroke-miterlimit="10"/>
<path d="M36.5 159.7H33.8V174.6H36.5V159.7Z" stroke="#E84234" stroke-miterlimit="10"/>
<path d="M178.4 159.7H114V162.7H178.4V159.7Z" stroke="#E84234" stroke-miterlimit="10"/>
<path d="M178.4 171.6H114V174.6H178.4V171.6Z" stroke="#E84234" stroke-miterlimit="10"/>
<path d="M178.4 167.8H114V170.8H178.4V167.8Z" stroke="#E84234" stroke-miterlimit="10"/>
<path d="M178.4 163.7H114V166.7H178.4V163.7Z" stroke="#E84234" stroke-miterlimit="10"/>
<path d="M186.7 186.2H25.5V213H186.7V186.2Z" stroke="#E84234" stroke-miterlimit="10"/>
<path d="M178.5 192.1H142.4V207H178.5V192.1Z" stroke="#E84234" stroke-miterlimit="10"/>
<path d="M137.7 192.1H114V207H137.7V192.1Z" stroke="#E84234" stroke-miterlimit="10"/>
<path d="M109.4 192.1H98.3V207H109.4V192.1Z" stroke="#E84234" stroke-miterlimit="10"/>
<path d="M86.0996 198.1C87.7565 198.1 89.0996 196.757 89.0996 195.1C89.0996 193.443 87.7565 192.1 86.0996 192.1C84.4428 192.1 83.0996 193.443 83.0996 195.1C83.0996 196.757 84.4428 198.1 86.0996 198.1Z" stroke="#E84234" stroke-miterlimit="10"/>
<path d="M86.0996 207.1C87.7565 207.1 89.0996 205.757 89.0996 204.1C89.0996 202.443 87.7565 201.1 86.0996 201.1C84.4428 201.1 83.0996 202.443 83.0996 204.1C83.0996 205.757 84.4428 207.1 86.0996 207.1Z" stroke="#E84234" stroke-miterlimit="10"/>
<path fill-rule="evenodd" clip-rule="evenodd" d="M75.9004 198.1C77.5004 198.1 78.9004 196.8 78.9004 195.1C78.9004 193.5 77.6004 192.1 75.9004 192.1C74.3004 192.1 72.9004 193.4 72.9004 195.1C72.9004 196.7 74.3004 198.1 75.9004 198.1Z" stroke="#E84234" stroke-miterlimit="10"/>
<path fill-rule="evenodd" clip-rule="evenodd" d="M75.9004 207.1C77.5004 207.1 78.9004 205.8 78.9004 204.1C78.9004 202.5 77.6004 201.1 75.9004 201.1C74.3004 201.1 72.9004 202.4 72.9004 204.1C72.9004 205.7 74.3004 207.1 75.9004 207.1Z" stroke="#E84234" stroke-miterlimit="10"/>
<path d="M66 192.1H63.3V207H66V192.1Z" stroke="#E84234" stroke-miterlimit="10"/>
<path d="M60.1004 192.1H57.4004V207H60.1004V192.1Z" stroke="#E84234" stroke-miterlimit="10"/>
<path d="M54.2 192.1H51.5V207H54.2V192.1Z" stroke="#E84234" stroke-miterlimit="10"/>
<path d="M48.2996 192.1H45.5996V207H48.2996V192.1Z" stroke="#E84234" stroke-miterlimit="10"/>
<path d="M42.4 192.1H39.7V207H42.4V192.1Z" stroke="#E84234" stroke-miterlimit="10"/>
<path d="M36.5 192.1H33.8V207H36.5V192.1Z" stroke="#E84234" stroke-miterlimit="10"/>
<path d="M186.7 218.6H25.5V245.4H186.7V218.6Z" stroke="#E84234" stroke-miterlimit="10"/>
<path d="M109.4 224.6H98.3V239.5H109.4V224.6Z" stroke="#E84234" stroke-miterlimit="10"/>
<path d="M86.0996 230.5C87.7565 230.5 89.0996 229.157 89.0996 227.5C89.0996 225.843 87.7565 224.5 86.0996 224.5C84.4428 224.5 83.0996 225.843 83.0996 227.5C83.0996 229.157 84.4428 230.5 86.0996 230.5Z" stroke="#E84234" stroke-miterlimit="10"/>
<path d="M86.0996 239.5C87.7565 239.5 89.0996 238.157 89.0996 236.5C89.0996 234.843 87.7565 233.5 86.0996 233.5C84.4428 233.5 83.0996 234.843 83.0996 236.5C83.0996 238.157 84.4428 239.5 86.0996 239.5Z" stroke="#E84234" stroke-miterlimit="10"/>
<path fill-rule="evenodd" clip-rule="evenodd" d="M75.9004 230.5C77.5004 230.5 78.9004 229.2 78.9004 227.5C78.9004 225.9 77.6004 224.5 75.9004 224.5C74.3004 224.5 72.9004 225.8 72.9004 227.5C72.9004 229.2 74.3004 230.5 75.9004 230.5Z" stroke="#E84234" stroke-miterlimit="10"/>
<path fill-rule="evenodd" clip-rule="evenodd" d="M75.9004 239.5C77.5004 239.5 78.9004 238.2 78.9004 236.5C78.9004 234.9 77.6004 233.5 75.9004 233.5C74.3004 233.5 72.9004 234.8 72.9004 236.5C72.9004 238.2 74.3004 239.5 75.9004 239.5Z" stroke="#E84234" stroke-miterlimit="10"/>
<path d="M66 224.6H63.3V239.5H66V224.6Z" stroke="#E84234" stroke-miterlimit="10"/>
<path d="M60.1004 224.6H57.4004V239.5H60.1004V224.6Z" stroke="#E84234" stroke-miterlimit="10"/>
<path d="M54.2 224.6H51.5V239.5H54.2V224.6Z" stroke="#E84234" stroke-miterlimit="10"/>
<path d="M48.2996 224.6H45.5996V239.5H48.2996V224.6Z" stroke="#E84234" stroke-miterlimit="10"/>
<path d="M42.4 224.6H39.7V239.5H42.4V224.6Z" stroke="#E84234" stroke-miterlimit="10"/>
<path d="M36.5 224.6H33.8V239.5H36.5V224.6Z" stroke="#E84234" stroke-miterlimit="10"/>
<path d="M178.4 224.6H114V227.6H178.4V224.6Z" stroke="#E84234" stroke-miterlimit="10"/>
<path d="M178.4 236.5H114V239.5H178.4V236.5Z" stroke="#E84234" stroke-miterlimit="10"/>
<path d="M178.4 232.7H114V235.7H178.4V232.7Z" stroke="#E84234" stroke-miterlimit="10"/>
<path d="M178.4 228.6H114V231.6H178.4V228.6Z" stroke="#E84234" stroke-miterlimit="10"/>
<path d="M186.7 251.1H25.5V277.9H186.7V251.1Z" stroke="#E84234" stroke-miterlimit="10"/>
<path d="M178.5 257H142.4V271.9H178.5V257Z" stroke="#E84234" stroke-miterlimit="10"/>
<path d="M137.7 257H114V271.9H137.7V257Z" stroke="#E84234" stroke-miterlimit="10"/>
<path d="M109.4 257H98.3V271.9H109.4V257Z" stroke="#E84234" stroke-miterlimit="10"/>
<path fill-rule="evenodd" clip-rule="evenodd" d="M75.9004 263C77.5004 263 78.9004 261.7 78.9004 260C78.9004 258.4 77.6004 257 75.9004 257C74.3004 257 72.9004 258.3 72.9004 260C72.9004 261.6 74.3004 263 75.9004 263Z" stroke="#E84234" stroke-miterlimit="10"/>
<path fill-rule="evenodd" clip-rule="evenodd" d="M75.9004 272C77.5004 272 78.9004 270.7 78.9004 269C78.9004 267.4 77.6004 266 75.9004 266C74.3004 266 72.9004 267.3 72.9004 269C72.9004 270.6 74.3004 272 75.9004 272Z" stroke="#E84234" stroke-miterlimit="10"/>
<path d="M86.0996 263C87.7565 263 89.0996 261.657 89.0996 260C89.0996 258.343 87.7565 257 86.0996 257C84.4428 257 83.0996 258.343 83.0996 260C83.0996 261.657 84.4428 263 86.0996 263Z" stroke="#E84234" stroke-miterlimit="10"/>
<path fill-rule="evenodd" clip-rule="evenodd" d="M86.0996 272C87.6996 272 89.0996 270.7 89.0996 269C89.0996 267.4 87.7996 266 86.0996 266C84.4996 266 83.0996 267.3 83.0996 269C83.0996 270.6 84.3996 272 86.0996 272Z" stroke="#E84234" stroke-miterlimit="10"/>
<path d="M66 257H63.3V271.9H66V257Z" stroke="#E84234" stroke-miterlimit="10"/>
<path d="M60.1004 257H57.4004V271.9H60.1004V257Z" stroke="#E84234" stroke-miterlimit="10"/>
<path d="M54.2 257H51.5V271.9H54.2V257Z" stroke="#E84234" stroke-miterlimit="10"/>
<path d="M48.2996 257H45.5996V271.9H48.2996V257Z" stroke="#E84234" stroke-miterlimit="10"/>
<path d="M42.4 257H39.7V271.9H42.4V257Z" stroke="#E84234" stroke-miterlimit="10"/>
<path d="M36.5 257H33.8V271.9H36.5V257Z" stroke="#E84234" stroke-miterlimit="10"/>
<path d="M186.7 283.5H25.5V310.3H186.7V283.5Z" stroke="#E84234" stroke-miterlimit="10"/>
<path d="M109.4 289.5H98.3V304.4H109.4V289.5Z" stroke="#E84234" stroke-miterlimit="10"/>
<path fill-rule="evenodd" clip-rule="evenodd" d="M75.9004 295.4C77.5004 295.4 78.9004 294.1 78.9004 292.4C78.9004 290.8 77.6004 289.4 75.9004 289.4C74.3004 289.4 72.9004 290.7 72.9004 292.4C72.9004 294.1 74.3004 295.4 75.9004 295.4Z" stroke="#E84234" stroke-miterlimit="10"/>
<path fill-rule="evenodd" clip-rule="evenodd" d="M75.9004 304.4C77.5004 304.4 78.9004 303.1 78.9004 301.4C78.9004 299.8 77.6004 298.4 75.9004 298.4C74.3004 298.4 72.9004 299.7 72.9004 301.4C72.9004 303.1 74.3004 304.4 75.9004 304.4Z" stroke="#E84234" stroke-miterlimit="10"/>
<path d="M86.0996 295.4C87.7565 295.4 89.0996 294.057 89.0996 292.4C89.0996 290.743 87.7565 289.4 86.0996 289.4C84.4428 289.4 83.0996 290.743 83.0996 292.4C83.0996 294.057 84.4428 295.4 86.0996 295.4Z" stroke="#E84234" stroke-miterlimit="10"/>
<path fill-rule="evenodd" clip-rule="evenodd" d="M86.0996 304.4C87.6996 304.4 89.0996 303.1 89.0996 301.4C89.0996 299.8 87.7996 298.4 86.0996 298.4C84.4996 298.4 83.0996 299.7 83.0996 301.4C83.0996 303.1 84.3996 304.4 86.0996 304.4Z" stroke="#E84234" stroke-miterlimit="10"/>
<path d="M66 289.5H63.3V304.4H66V289.5Z" stroke="#E84234" stroke-miterlimit="10"/>
<path d="M60.1004 289.5H57.4004V304.4H60.1004V289.5Z" stroke="#E84234" stroke-miterlimit="10"/>
<path d="M54.2 289.5H51.5V304.4H54.2V289.5Z" stroke="#E84234" stroke-miterlimit="10"/>
<path d="M48.2996 289.5H45.5996V304.4H48.2996V289.5Z" stroke="#E84234" stroke-miterlimit="10"/>
<path d="M42.4 289.5H39.7V304.4H42.4V289.5Z" stroke="#E84234" stroke-miterlimit="10"/>
<path d="M36.5 289.5H33.8V304.4H36.5V289.5Z" stroke="#E84234" stroke-miterlimit="10"/>
<path d="M178.4 289.5H114V292.5H178.4V289.5Z" stroke="#E84234" stroke-miterlimit="10"/>
<path d="M178.4 301.4H114V304.4H178.4V301.4Z" stroke="#E84234" stroke-miterlimit="10"/>
<path d="M178.4 297.6H114V300.6H178.4V297.6Z" stroke="#E84234" stroke-miterlimit="10"/>
<path d="M178.4 293.5H114V296.5H178.4V293.5Z" stroke="#E84234" stroke-miterlimit="10"/>
<path d="M186.7 316H25.5V383H186.7V316Z" stroke="#E84234" stroke-miterlimit="10"/>
<path d="M48.8996 321.9H30.0996V332.6H48.8996V321.9Z" stroke="#E84234" stroke-miterlimit="10"/>
<path d="M48.8996 364.9H30.0996V375.6H48.8996V364.9Z" stroke="#E84234" stroke-miterlimit="10"/>
<path d="M48.8996 351.2H30.0996V361.9H48.8996V351.2Z" stroke="#E84234" stroke-miterlimit="10"/>
<path d="M48.8996 336.5H30.0996V347.2H48.8996V336.5Z" stroke="#E84234" stroke-miterlimit="10"/>
<path d="M103.9 321.9H56.3997V324.9H103.9V321.9Z" stroke="#E84234" stroke-miterlimit="10"/>
<path d="M103.9 333.9H56.3997V336.9H103.9V333.9Z" stroke="#E84234" stroke-miterlimit="10"/>
<path d="M103.9 330H56.3997V333H103.9V330Z" stroke="#E84234" stroke-miterlimit="10"/>
<path d="M103.9 326H56.3997V329H103.9V326Z" stroke="#E84234" stroke-miterlimit="10"/>
<path d="M103.9 341.3H56.3997V344.3H103.9V341.3Z" stroke="#E84234" stroke-miterlimit="10"/>
<path d="M103.9 353.2H56.3997V356.2H103.9V353.2Z" stroke="#E84234" stroke-miterlimit="10"/>
<path d="M103.9 349.4H56.3997V352.4H103.9V349.4Z" stroke="#E84234" stroke-miterlimit="10"/>
<path d="M103.9 345.3H56.3997V348.3H103.9V345.3Z" stroke="#E84234" stroke-miterlimit="10"/>
<path d="M103.9 360.6H56.3997V363.6H103.9V360.6Z" stroke="#E84234" stroke-miterlimit="10"/>
<path d="M103.9 372.6H56.3997V375.6H103.9V372.6Z" stroke="#E84234" stroke-miterlimit="10"/>
<path d="M103.9 368.8H56.3997V371.8H103.9V368.8Z" stroke="#E84234" stroke-miterlimit="10"/>
<path d="M103.9 364.7H56.3997V367.7H103.9V364.7Z" stroke="#E84234" stroke-miterlimit="10"/>
<path d="M127.1 321.9H108.3V332.6H127.1V321.9Z" stroke="#E84234" stroke-miterlimit="10"/>
<path d="M127.1 364.9H108.3V375.6H127.1V364.9Z" stroke="#E84234" stroke-miterlimit="10"/>
<path d="M127.1 351.2H108.3V361.9H127.1V351.2Z" stroke="#E84234" stroke-miterlimit="10"/>
<path d="M127.1 336.5H108.3V347.2H127.1V336.5Z" stroke="#E84234" stroke-miterlimit="10"/>
<path d="M182.1 321.9H134.6V324.9H182.1V321.9Z" stroke="#E84234" stroke-miterlimit="10"/>
<path d="M182.1 333.9H134.6V336.9H182.1V333.9Z" stroke="#E84234" stroke-miterlimit="10"/>
<path d="M182.1 330H134.6V333H182.1V330Z" stroke="#E84234" stroke-miterlimit="10"/>
<path d="M182.1 326H134.6V329H182.1V326Z" stroke="#E84234" stroke-miterlimit="10"/>
<path d="M182.1 341.3H134.6V344.3H182.1V341.3Z" stroke="#E84234" stroke-miterlimit="10"/>
<path d="M182.1 353.2H134.6V356.2H182.1V353.2Z" stroke="#E84234" stroke-miterlimit="10"/>
<path d="M182.1 349.4H134.6V352.4H182.1V349.4Z" stroke="#E84234" stroke-miterlimit="10"/>
<path d="M182.1 345.3H134.6V348.3H182.1V345.3Z" stroke="#E84234" stroke-miterlimit="10"/>
<path d="M182.1 360.6H134.6V363.6H182.1V360.6Z" stroke="#E84234" stroke-miterlimit="10"/>
<path d="M182.1 372.6H134.6V375.6H182.1V372.6Z" stroke="#E84234" stroke-miterlimit="10"/>
<path d="M182.1 368.8H134.6V371.8H182.1V368.8Z" stroke="#E84234" stroke-miterlimit="10"/>
<path d="M182.1 364.7H134.6V367.7H182.1V364.7Z" stroke="#E84234" stroke-miterlimit="10"/>
<path d="M186.7 388.3H25.5V415.1H186.7V388.3Z" stroke="#E84234" stroke-miterlimit="10"/>
<path d="M178.5 394.2H142.4V409.1H178.5V394.2Z" stroke="#E84234" stroke-miterlimit="10"/>
<path d="M137.7 394.2H114V409.1H137.7V394.2Z" stroke="#E84234" stroke-miterlimit="10"/>
<path d="M109.4 394.2H98.3V409.1H109.4V394.2Z" stroke="#E84234" stroke-miterlimit="10"/>
<path d="M86.0996 400.2C87.7565 400.2 89.0996 398.857 89.0996 397.2C89.0996 395.543 87.7565 394.2 86.0996 394.2C84.4428 394.2 83.0996 395.543 83.0996 397.2C83.0996 398.857 84.4428 400.2 86.0996 400.2Z" stroke="#E84234" stroke-miterlimit="10"/>
<path fill-rule="evenodd" clip-rule="evenodd" d="M86.0996 409.1C87.6996 409.1 89.0996 407.8 89.0996 406.1C89.0996 404.5 87.7996 403.1 86.0996 403.1C84.4996 403.1 83.0996 404.4 83.0996 406.1C83.0996 407.8 84.3996 409.1 86.0996 409.1Z" stroke="#E84234" stroke-miterlimit="10"/>
<path fill-rule="evenodd" clip-rule="evenodd" d="M75.9004 400.1C77.5004 400.1 78.9004 398.8 78.9004 397.1C78.9004 395.5 77.6004 394.1 75.9004 394.1C74.3004 394.1 72.9004 395.4 72.9004 397.1C72.9004 398.8 74.3004 400.1 75.9004 400.1Z" stroke="#E84234" stroke-miterlimit="10"/>
<path fill-rule="evenodd" clip-rule="evenodd" d="M75.9004 409.1C77.5004 409.1 78.9004 407.8 78.9004 406.1C78.9004 404.5 77.6004 403.1 75.9004 403.1C74.3004 403.1 72.9004 404.4 72.9004 406.1C72.9004 407.8 74.3004 409.1 75.9004 409.1Z" stroke="#E84234" stroke-miterlimit="10"/>
<path d="M66 394.2H63.3V409.1H66V394.2Z" stroke="#E84234" stroke-miterlimit="10"/>
<path d="M60.1004 394.2H57.4004V409.1H60.1004V394.2Z" stroke="#E84234" stroke-miterlimit="10"/>
<path d="M54.2 394.2H51.5V409.1H54.2V394.2Z" stroke="#E84234" stroke-miterlimit="10"/>
<path d="M48.2996 394.2H45.5996V409.1H48.2996V394.2Z" stroke="#E84234" stroke-miterlimit="10"/>
<path d="M42.4 394.2H39.7V409.1H42.4V394.2Z" stroke="#E84234" stroke-miterlimit="10"/>
<path d="M36.5 394.2H33.8V409.1H36.5V394.2Z" stroke="#E84234" stroke-miterlimit="10"/>
<path d="M186.7 420.7H25.5V447.5H186.7V420.7Z" stroke="#E84234" stroke-miterlimit="10"/>
<path d="M109.4 426.6H98.3V441.5H109.4V426.6Z" stroke="#E84234" stroke-miterlimit="10"/>
<path d="M86.0996 432.6C87.7565 432.6 89.0996 431.257 89.0996 429.6C89.0996 427.943 87.7565 426.6 86.0996 426.6C84.4428 426.6 83.0996 427.943 83.0996 429.6C83.0996 431.257 84.4428 432.6 86.0996 432.6Z" stroke="#E84234" stroke-miterlimit="10"/>
<path d="M86.0996 441.6C87.7565 441.6 89.0996 440.257 89.0996 438.6C89.0996 436.943 87.7565 435.6 86.0996 435.6C84.4428 435.6 83.0996 436.943 83.0996 438.6C83.0996 440.257 84.4428 441.6 86.0996 441.6Z" stroke="#E84234" stroke-miterlimit="10"/>
<path fill-rule="evenodd" clip-rule="evenodd" d="M75.9004 432.6C77.5004 432.6 78.9004 431.3 78.9004 429.6C78.9004 428 77.6004 426.6 75.9004 426.6C74.3004 426.6 72.9004 427.9 72.9004 429.6C72.9004 431.3 74.3004 432.6 75.9004 432.6Z" stroke="#E84234" stroke-miterlimit="10"/>
<path fill-rule="evenodd" clip-rule="evenodd" d="M75.9004 441.6C77.5004 441.6 78.9004 440.3 78.9004 438.6C78.9004 437 77.6004 435.6 75.9004 435.6C74.3004 435.6 72.9004 436.9 72.9004 438.6C72.9004 440.2 74.3004 441.6 75.9004 441.6Z" stroke="#E84234" stroke-miterlimit="10"/>
<path d="M66 426.6H63.3V441.5H66V426.6Z" stroke="#E84234" stroke-miterlimit="10"/>
<path d="M60.1004 426.6H57.4004V441.5H60.1004V426.6Z" stroke="#E84234" stroke-miterlimit="10"/>
<path d="M54.2 426.6H51.5V441.5H54.2V426.6Z" stroke="#E84234" stroke-miterlimit="10"/>
<path d="M48.2996 426.6H45.5996V441.5H48.2996V426.6Z" stroke="#E84234" stroke-miterlimit="10"/>
<path d="M42.4 426.6H39.7V441.5H42.4V426.6Z" stroke="#E84234" stroke-miterlimit="10"/>
<path d="M36.5 426.6H33.8V441.5H36.5V426.6Z" stroke="#E84234" stroke-miterlimit="10"/>
<path d="M178.4 426.6H114V429.6H178.4V426.6Z" stroke="#E84234" stroke-miterlimit="10"/>
<path d="M178.4 438.6H114V441.6H178.4V438.6Z" stroke="#E84234" stroke-miterlimit="10"/>
<path d="M178.4 434.8H114V437.8H178.4V434.8Z" stroke="#E84234" stroke-miterlimit="10"/>
<path d="M178.4 430.7H114V433.7H178.4V430.7Z" stroke="#E84234" stroke-miterlimit="10"/>
<path d="M186.7 453.2H25.5V480H186.7V453.2Z" stroke="#E84234" stroke-miterlimit="10"/>
<path d="M178.5 459.1H142.4V474H178.5V459.1Z" stroke="#E84234" stroke-miterlimit="10"/>
<path d="M137.7 459.1H114V474H137.7V459.1Z" stroke="#E84234" stroke-miterlimit="10"/>
<path d="M109.4 459.1H98.3V474H109.4V459.1Z" stroke="#E84234" stroke-miterlimit="10"/>
<path fill-rule="evenodd" clip-rule="evenodd" d="M75.9004 465C77.5004 465 78.9004 463.7 78.9004 462C78.9004 460.4 77.6004 459 75.9004 459C74.3004 459 72.9004 460.3 72.9004 462C72.9004 463.7 74.3004 465 75.9004 465Z" stroke="#E84234" stroke-miterlimit="10"/>
<path fill-rule="evenodd" clip-rule="evenodd" d="M75.9004 474C77.5004 474 78.9004 472.7 78.9004 471C78.9004 469.4 77.6004 468 75.9004 468C74.3004 468 72.9004 469.3 72.9004 471C72.9004 472.7 74.3004 474 75.9004 474Z" stroke="#E84234" stroke-miterlimit="10"/>
<path d="M86.0996 465.1C87.7565 465.1 89.0996 463.757 89.0996 462.1C89.0996 460.443 87.7565 459.1 86.0996 459.1C84.4428 459.1 83.0996 460.443 83.0996 462.1C83.0996 463.757 84.4428 465.1 86.0996 465.1Z" stroke="#E84234" stroke-miterlimit="10"/>
<path d="M86.0996 474.1C87.7565 474.1 89.0996 472.757 89.0996 471.1C89.0996 469.443 87.7565 468.1 86.0996 468.1C84.4428 468.1 83.0996 469.443 83.0996 471.1C83.0996 472.757 84.4428 474.1 86.0996 474.1Z" stroke="#E84234" stroke-miterlimit="10"/>
<path d="M66 459.1H63.3V474H66V459.1Z" stroke="#E84234" stroke-miterlimit="10"/>
<path d="M60.1004 459.1H57.4004V474H60.1004V459.1Z" stroke="#E84234" stroke-miterlimit="10"/>
<path d="M54.2 459.1H51.5V474H54.2V459.1Z" stroke="#E84234" stroke-miterlimit="10"/>
<path d="M48.2996 459.1H45.5996V474H48.2996V459.1Z" stroke="#E84234" stroke-miterlimit="10"/>
<path d="M42.4 459.1H39.7V474H42.4V459.1Z" stroke="#E84234" stroke-miterlimit="10"/>
<path d="M36.5 459.1H33.8V474H36.5V459.1Z" stroke="#E84234" stroke-miterlimit="10"/>
<path d="M186.7 485.6H25.5V512.4H186.7V485.6Z" stroke="#E84234" stroke-miterlimit="10"/>
<path d="M109.4 491.5H98.3V506.4H109.4V491.5Z" stroke="#E84234" stroke-miterlimit="10"/>
<path fill-rule="evenodd" clip-rule="evenodd" d="M75.9004 497.5C77.5004 497.5 78.9004 496.2 78.9004 494.5C78.9004 492.9 77.6004 491.5 75.9004 491.5C74.3004 491.5 72.9004 492.8 72.9004 494.5C72.9004 496.2 74.3004 497.5 75.9004 497.5Z" stroke="#E84234" stroke-miterlimit="10"/>
<path fill-rule="evenodd" clip-rule="evenodd" d="M75.9004 506.5C77.5004 506.5 78.9004 505.2 78.9004 503.5C78.9004 501.8 77.6004 500.5 75.9004 500.5C74.3004 500.5 72.9004 501.8 72.9004 503.5C72.9004 505.2 74.3004 506.5 75.9004 506.5Z" stroke="#E84234" stroke-miterlimit="10"/>
<path fill-rule="evenodd" clip-rule="evenodd" d="M86.0996 497.5C87.6996 497.5 89.0996 496.2 89.0996 494.5C89.0996 492.9 87.7996 491.5 86.0996 491.5C84.4996 491.5 83.0996 492.8 83.0996 494.5C83.0996 496.2 84.3996 497.5 86.0996 497.5Z" stroke="#E84234" stroke-miterlimit="10"/>
<path d="M86.0996 506.5C87.7565 506.5 89.0996 505.157 89.0996 503.5C89.0996 501.843 87.7565 500.5 86.0996 500.5C84.4428 500.5 83.0996 501.843 83.0996 503.5C83.0996 505.157 84.4428 506.5 86.0996 506.5Z" stroke="#E84234" stroke-miterlimit="10"/>
<path d="M66 491.5H63.3V506.4H66V491.5Z" stroke="#E84234" stroke-miterlimit="10"/>
<path d="M60.1004 491.5H57.4004V506.4H60.1004V491.5Z" stroke="#E84234" stroke-miterlimit="10"/>
<path d="M54.2 491.5H51.5V506.4H54.2V491.5Z" stroke="#E84234" stroke-miterlimit="10"/>
<path d="M48.2996 491.5H45.5996V506.4H48.2996V491.5Z" stroke="#E84234" stroke-miterlimit="10"/>
<path d="M42.4 491.5H39.7V506.4H42.4V491.5Z" stroke="#E84234" stroke-miterlimit="10"/>
<path d="M36.5 491.5H33.8V506.4H36.5V491.5Z" stroke="#E84234" stroke-miterlimit="10"/>
<path d="M178.4 491.5H114V494.5H178.4V491.5Z" stroke="#E84234" stroke-miterlimit="10"/>
<path d="M178.4 503.5H114V506.5H178.4V503.5Z" stroke="#E84234" stroke-miterlimit="10"/>
<path d="M178.4 499.7H114V502.7H178.4V499.7Z" stroke="#E84234" stroke-miterlimit="10"/>
<path d="M178.4 495.6H114V498.6H178.4V495.6Z" stroke="#E84234" stroke-miterlimit="10"/>
<path d="M186.7 518.1H25.5V544.9H186.7V518.1Z" stroke="#E84234" stroke-miterlimit="10"/>
<path d="M178.5 524H142.4V538.9H178.5V524Z" stroke="#E84234" stroke-miterlimit="10"/>
<path d="M137.7 524H114V538.9H137.7V524Z" stroke="#E84234" stroke-miterlimit="10"/>
<path d="M109.4 524H98.3V538.9H109.4V524Z" stroke="#E84234" stroke-miterlimit="10"/>
<path d="M86.0996 530C87.7565 530 89.0996 528.657 89.0996 527C89.0996 525.343 87.7565 524 86.0996 524C84.4428 524 83.0996 525.343 83.0996 527C83.0996 528.657 84.4428 530 86.0996 530Z" stroke="#E84234" stroke-miterlimit="10"/>
<path d="M86.0996 539C87.7565 539 89.0996 537.657 89.0996 536C89.0996 534.343 87.7565 533 86.0996 533C84.4428 533 83.0996 534.343 83.0996 536C83.0996 537.657 84.4428 539 86.0996 539Z" stroke="#E84234" stroke-miterlimit="10"/>
<path fill-rule="evenodd" clip-rule="evenodd" d="M75.9004 529.9C77.5004 529.9 78.9004 528.6 78.9004 526.9C78.9004 525.3 77.6004 523.9 75.9004 523.9C74.3004 523.9 72.9004 525.2 72.9004 526.9C72.9004 528.6 74.3004 529.9 75.9004 529.9Z" stroke="#E84234" stroke-miterlimit="10"/>
<path fill-rule="evenodd" clip-rule="evenodd" d="M75.9004 538.9C77.5004 538.9 78.9004 537.6 78.9004 535.9C78.9004 534.2 77.6004 532.9 75.9004 532.9C74.3004 532.9 72.9004 534.2 72.9004 535.9C72.9004 537.6 74.3004 538.9 75.9004 538.9Z" stroke="#E84234" stroke-miterlimit="10"/>
<path d="M66 524H63.3V538.9H66V524Z" stroke="#E84234" stroke-miterlimit="10"/>
<path d="M60.1004 524H57.4004V538.9H60.1004V524Z" stroke="#E84234" stroke-miterlimit="10"/>
<path d="M54.2 524H51.5V538.9H54.2V524Z" stroke="#E84234" stroke-miterlimit="10"/>
<path d="M48.2996 524H45.5996V538.9H48.2996V524Z" stroke="#E84234" stroke-miterlimit="10"/>
<path d="M42.4 524H39.7V538.9H42.4V524Z" stroke="#E84234" stroke-miterlimit="10"/>
<path d="M36.5 524H33.8V538.9H36.5V524Z" stroke="#E84234" stroke-miterlimit="10"/>
</g>
<defs>
<clipPath id="clip0_177_928">
<rect width="212.2" height="569.6" fill="white"/>
</clipPath>
</defs>
</svg>
