<svg width="333" height="322" viewBox="0 0 333 322" fill="none" xmlns="http://www.w3.org/2000/svg">
<path d="M70.6446 245.414C32.3647 186.818 48.8345 108.284 107.431 70.0041C166.028 31.7241 244.562 48.194 282.842 106.791C302.147 136.342 307.527 170.964 300.602 202.937L225.059 252.288L151.555 300.306C119.493 293.803 89.9502 274.966 70.6446 245.414Z" fill="white" stroke="#E84234"/>
<path d="M299.749 203.494L152.406 299.75C155.845 283.915 161.364 269.52 170.518 256.123C179.907 242.382 191.911 230.625 205.844 221.522C219.777 212.42 235.366 206.152 251.722 203.074C267.678 200.072 283.841 200.307 299.749 203.494Z" fill="white" stroke="#E84234"/>
</svg>
